/* XPM */
static char *_daf2ac967334aeac6c829da61622d0e73DvTECZIU8u2llW[] = {
/* columns rows colors chars-per-pixel */
"64 64 256 2 ",
"   c black",
".  c #0000A8",
"X  c #00A800",
"o  c #00A8A8",
"O  c #A80000",
"+  c #A800A8",
"@  c #A85400",
"#  c gray66",
"$  c gray33",
"%  c #5454FC",
"&  c #54FC54",
"*  c #54FCFC",
"=  c #FC5454",
"-  c #FC54FC",
";  c #FCFC54",
":  c gray99",
">  c #ECECEC",
",  c gainsboro",
"<  c #D0D0D0",
"1  c #C0C0C0",
"2  c #B4B4B4",
"3  c gray66",
"4  c #989898",
"5  c gray55",
"6  c #7C7C7C",
"7  c gray44",
"8  c #646464",
"9  c gray33",
"0  c #484848",
"q  c gray22",
"w  c #2C2C2C",
"e  c #202020",
"r  c #FC0000",
"t  c #EC0000",
"y  c #E00000",
"u  c #D40000",
"i  c #C80000",
"p  c #BC0000",
"a  c #B00000",
"s  c #A40000",
"d  c #980000",
"f  c #880000",
"g  c #7C0000",
"h  c #700000",
"j  c #640000",
"k  c #580000",
"l  c #4C0000",
"z  c #400000",
"x  c #FCD8D8",
"c  c #FCB8B8",
"v  c #FC9C9C",
"b  c #FC7C7C",
"n  c #FC5C5C",
"m  c #FC4040",
"M  c #FC2020",
"N  c #FC0000",
"B  c #FCA85C",
"V  c #FC9840",
"C  c #FC8820",
"Z  c #FC7800",
"A  c #E46C00",
"S  c #CC6000",
"D  c #B45400",
"F  c #9C4C00",
"G  c #FCFCD8",
"H  c #FCFCB8",
"J  c #FCFC9C",
"K  c #FCFC7C",
"L  c #FCF85C",
"P  c #FCF440",
"I  c #FCF420",
"U  c #FCF400",
"Y  c #E4D800",
"T  c #CCC400",
"R  c #B4AC00",
"E  c #9C9C00",
"W  c #848400",
"Q  c #706C00",
"!  c #585400",
"~  c #404000",
"^  c #D0FC5C",
"/  c #C4FC40",
"(  c #B4FC20",
")  c #A0FC00",
"_  c #90E400",
"`  c #80CC00",
"'  c #74B400",
"]  c #609C00",
"[  c #D8FCD8",
"{  c #BCFCB8",
"}  c #9CFC9C",
"|  c #80FC7C",
" . c #60FC5C",
".. c #40FC40",
"X. c #20FC20",
"o. c #00FC00",
"O. c #00FC00",
"+. c #00EC00",
"@. c #00E000",
"#. c #00D400",
"$. c #04C800",
"%. c #04BC00",
"&. c #04B000",
"*. c #04A400",
"=. c #049800",
"-. c #048800",
";. c #047C00",
":. c #047000",
">. c #046400",
",. c #045800",
"<. c #044C00",
"1. c #044000",
"2. c #D8FCFC",
"3. c #B8FCFC",
"4. c #9CFCFC",
"5. c #7CFCF8",
"6. c #5CFCFC",
"7. c #40FCFC",
"8. c #20FCFC",
"9. c #00FCFC",
"0. c #00E4E4",
"q. c #00CCCC",
"w. c #00B4B4",
"e. c #009C9C",
"r. c #008484",
"t. c #007070",
"y. c #005858",
"u. c #004040",
"i. c #5CBCFC",
"p. c #40B0FC",
"a. c #20A8FC",
"s. c #009CFC",
"d. c #008CE4",
"f. c #007CCC",
"g. c #006CB4",
"h. c #005C9C",
"j. c #D8D8FC",
"k. c #B8BCFC",
"l. c #9C9CFC",
"z. c #7C80FC",
"x. c #5C60FC",
"c. c #4040FC",
"v. c #2024FC",
"b. c #0004FC",
"n. c #0000FC",
"m. c #0000EC",
"M. c #0000E0",
"N. c #0000D4",
"B. c #0000C8",
"V. c #0000BC",
"C. c #0000B0",
"Z. c #0000A4",
"A. c #000098",
"S. c #000088",
"D. c #00007C",
"F. c #000070",
"G. c #000064",
"H. c #000058",
"J. c #00004C",
"K. c #000040",
"L. c #282828",
"P. c #FCE034",
"I. c #FCD424",
"U. c #FCCC18",
"Y. c #FCC008",
"T. c #FCB400",
"R. c #B420FC",
"E. c #A800FC",
"W. c #9800E4",
"Q. c #8000CC",
"!. c #7400B4",
"~. c #60009C",
"^. c #500084",
"/. c #440070",
"(. c #340058",
"). c #280040",
"_. c #FCD8FC",
"`. c #FCB8FC",
"'. c #FC9CFC",
"]. c #FC7CFC",
"[. c #FC5CFC",
"{. c #FC40FC",
"}. c #FC20FC",
"|. c #FC00FC",
" X c #E000E4",
".X c #C800CC",
"XX c #B400B4",
"oX c #9C009C",
"OX c #840084",
"+X c #6C0070",
"@X c #580058",
"#X c #400040",
"$X c #FCE8DC",
"%X c #FCE0D0",
"&X c #FCD8C4",
"*X c #FCD4BC",
"=X c #FCCCB0",
"-X c #FCC4A4",
";X c #FCBC9C",
":X c #FCB890",
">X c #FCB080",
",X c #FCA470",
"<X c #FC9C60",
"1X c #F0945C",
"2X c #E88C58",
"3X c #DC8854",
"4X c #D08050",
"5X c #C87C4C",
"6X c #BC7848",
"7X c #B47044",
"8X c #A86840",
"9X c #A0643C",
"0X c #9C6038",
"qX c #905C34",
"wX c #885830",
"eX c #80502C",
"rX c #744C28",
"tX c #6C4824",
"yX c #5C4020",
"uX c #543C1C",
"iX c #483818",
"pX c #403018",
"aX c #382C14",
"sX c #28200C",
"dX c #600064",
"fX c #006464",
"gX c #006060",
"hX c #00001C",
"jX c #00002C",
"kX c #302410",
"lX c #480048",
"zX c #500050",
"xX c #000034",
"cX c gray11",
"vX c #4C4C4C",
"bX c gray36",
"nX c gray25",
"mX c gray19",
"MX c #343434",
"NX c #D8F4F4",
"BX c #B8E8E8",
"VX c #9CDCDC",
"CX c #74C8C8",
"ZX c #48C0C0",
"AX c #20B4B4",
"SX c #20B0B0",
"DX c #00A4A4",
"FX c #009898",
"GX c #008C8C",
"HX c #008484",
"JX c #007C7C",
"KX c #007878",
"LX c #007474",
"PX c #007070",
"IX c #006C6C",
"UX c #980088",
/* pixels */
"q 0 0 0 q 0 0 0 0 0 $ 0 nXnX0 0 nX0 nXnX0 0 0 0 0 0 $ 0 nXnX0 0 nX0 nXnX0 0 0 0 0 0 $ 0 nXnX0 0 nX0 nXnX0 0 0 0 nX0 0 0 nX0 0 vX",
"q nX0 nX# vX0 nX0 nXnX0 # nXnXnX0 0 0 nX# vX0 nX0 nXnX0 # nXnXnX0 0 0 nX# vX0 nX0 nXnX0 # nXnXnX0 0 0 nX# 0 0 0 nXnX0 0 # 0 0 0 ",
"MXnXnXw vX0 0 nX0 0 0 w vXvXnX0 nXnXnXw vX0 0 nX0 0 0 w vXvXnX0 nXnXnXw vX0 0 nX0 0 0 w vXvXnX0 nXnXnXw vXnXnX0 0 nXnXw vXnXnX0 ",
"MXnX0 nXMX0 0 0 nX0 0 nXMX0 nXnXnXnXnXq MX0 0 0 nX0 0 nXMX0 nXnXnXnXnXq MX0 0 0 nX0 0 q MX0 nXnXnXnXnXq MXnX0 0 nX0 nXq q nXnX0 ",
"nX0 0 0 e e mXMXw MXq MXe MXq w w MXMXe e e mXMXw MXq MXe MXq w w MXMXe e e mXMXw MXq MXe MXmXw w MXMXe e w e w e e cXcXcXvX0 5 ",
"MXnXnX0 nXnX0 0 nXnXnXnXnXnXnX0 0 nXnXnXq nX0 0 nXnX0 nXnXnXnX0 nXnX0 q q nX0 0 q nXnXnXnX0 nXnXnX0 vX$ 0 q q q q MXMXw cXnXq MX",
"MXq 0 0 vX0 vX0 0 nX0 nX0 $ 0 0 0 nX0 0 0 0 vX0 0 nX0 nX0 $ 0 0 0 nX0 0 0 0 vX0 0 nX0 nX0 $ 0 $ 7 # # 7 nXnX0 nX0 nXq q e 0 0 nX",
"MX0 0 0 0 nX0 nX0 0 0 nX0 0 0 0 vXbX8 vX0 nX0 nX0 0 0 nX0 0 0 0 0 nX0 nX0 nX0 nX0 0 0 nX0 $ 7 # 5 # 7 nXnXnX0 nX0 0 nXnXe nX0 0 ",
"q 0 0 0 vXnX0 nXnXnXnX0 0 nXnX0 4 # 1 # 7 vX0 nXnXnXnX0 0 nXnXnX0 nX0 0 nXnX0 nXnXnXnXvX8 2 4 5 # $ 0 0 nX0 0 nXnX0 nX0 w 0 0 $ ",
"nXnX0 nX0 0 0 0 vX0 nX0 nXnXnXvX0 6 4 # # 5 bX7 8 vXnX0 nXnXnXnX0 0 0 0 0 0 0 0 vX0 vX5 4 7 5 # bX0 0 0 0 $ 0 nXnX0 0 0 mX$ 0 0 ",
"nXnX0 0 vX0 0 0 nX0 0 $ 0 nXnX$ 4 # 5 4 8 7 # 5 2 # $ 0 nXnXnX0 nXnX0 nXnX0 0 0 nXvX# 5 bX8 4 7 nXnX0 nXnX0 0 0 0 0 0 0 w 0 $ vX",
"nX0 0 0 vX0 nX0 0 0 nXnXnXvXnXvX# # 6 bX0 MX0 bX5 # 5 $ nXvXnXvXnX0 0 0 nX0 nX0 vX# 6 6 bX6 6 vXnX0 0 0 q q q nX0 0 0 nXMX0 nX0 ",
"nX6 nXnX0 0 nXnX0 0 nX0 nX0 nX0 5 6 7 7 4 # $ 8 4 # # 4 7 0 nXnXnXnXnXnXnX0 nXvX2 4 6 8 8 8 7 0 nXnXnXnXnXnX0 nXnX0 0 0 q 0 nX$ ",
"w w nXnXvXnX0 0 nX0 nXnX0 nX0 0 q 6 # 7 bX6 5 # 5 4 4 4 # 7 vXnXnXq nXnX0 nXvX2 5 5 $ bX7 bX6 7 nXq nXnX0 0 nXnXnX0 0 nXMX$ 0 vX",
"MXnX0 nXvX0 nXnX0 0 nXnX0 nX0 nX0 8 q 4 8 bX7 5 2 4 6 # 2 # 4 8 0 nX0 nXnX0 4 5 7 6 $ 6 8 7 7 # # 4 7 nXnXnXq nXq 0 0 0 MX0 nX$ ",
"q 0 nXnX0 0 0 0 0 0 0 0 0 nXnXnXnXMXMX0 8 0 $ bX8 7 7 6 4 # # 2 # 4 $ 0 nX7 # 7 6 0 8 bX6 5 # bXvX0 0 0 nX0 nX0 0 q nX0 w 0 nX$ ",
"MXnXnXnX0 nX0 nXnX0 0 0 0 nXnX$ 0 vX0 L.6 vX$ bX$ 4 4 7 bX7 7 7 bX0 0 0 8 4 7 bX6 $ bX4 5 6 0 $ 0 0 0 0 0 0 0 $ nXnX0 0 MX0 0 0 ",
"nXnX0 0 vX0 0 0 nX0 0 0 0 0 0 0 0 MX6 MX8 bXbX8 0 8 6 4 6 0 MXq 0 0 0 $ # 7 bX8 5 7 8 4 bXvX0 0 0 0 0 nX0 0 0 0 nX0 0 0 q 0 nX0 ",
"q nXnX0 vX0 0 0 0 nX0 0 nX0 0 0 vXbX7 6 8 7 bX0 MXvX7 6 4 4 vX0 nX0 $ 5 8 bXbXbX5 8 6 $ bX0 0 0 nX0 0 nX0 nX0 0 0 nX0 vXMX0 0 0 ",
"q nX0 0 $ 0 0 0 nXnX0 0 0 0 nX0 nXw 0 $ $ $ q nXMXnXbX6 5 5 7 vXnX0 6 6 bX8 5 # 4 # bX$ 7 $ nX0 nXvX0 q 0 0 0 0 0 0 $ 0 q 0 $ vX",
"q nXnX0 vX0 0 0 0 0 nX0 0 0 0 0 nXMXbXbXnXw 0 0 0 q vXbX6 5 4 bXnX$ 5 8 8 6 0 MX0 vX0 $ bX5 vX7 # 5 vXnXnXnX0 0 nX0 0 0 MX0 $ 5 ",
"nX0 0 0 vX0 nX0 nX0 0 nX0 vX0 0 0 nXMXMXq 0 nX0 nXnXnXbX7 6 6 bX0 8 8 bX6 0 nX8 8 $ bX$ 0 7 1 4 $ nX0 0 0 nX0 0 0 0 0 0 MX$ MXe ",
"q 0 nX$ $ 0 0 0 0 0 0 nX0 0 0 0 0 0 0 nX0 0 0 0 0 nXnX$ bX8 7 vX$ 8 bX0 7 0 8 6 0 0 7 bX7 7 $ 0 0 nX0 nX0 0 0 0 0 0 0 0 MX0 0 0 ",
"MX$ nX0 $ 0 0 vX0 nX0 0 0 0 0 0 0 0 0 0 0 0 0 vX0 nX0 bXbXbXbX0 7 8 $ nX6 0 8 bXbXvX7 4 7 $ 0 0 0 0 nXnX0 0 0 0 0 0 0 0 q 0 0 0 ",
"q $ nXnXvX0 0 nX0 0 0 0 nX0 $ 0 0 0 0 0 0 0 0 nX0 0 vXbXbX8 $ vX6 8 vX$ 7 7 bXvX$ 6 5 7 0 8 $ 0 0 0 nX0 0 0 0 $ 0 0 0 nXq nX0 $ ",
"MXnX0 0 $ 0 0 nXnX0 0 0 0 0 0 0 0 $ 0 0 0 0 0 nXnX0 $ 8 $ bX0 6 7 bX8 7 bX6 vX$ 8 5 bX0 0 8 0 0 0 $ 0 0 nX0 0 0 nXnXnX0 MX0 0 vX",
"0 0 nX0 0 0 0 0 0 0 0 0 0 0 0 0 nX$ $ 0 nX0 0 0 0 bXbXvXbXvX0 7 8 8 6 0 q 0 $ bX5 7 0 0 0 8 $ 0 nX$ $ 0 nXnX0 0 nX0 0 0 MX0 0 $ ",
"q 0 0 nX0 nX0 0 0 0 0 0 0 0 0 0 0 0 0 0 $ nX0 0 bX8 vX$ bX0 bXbX7 8 bX0 bX0 8 7 8 0 bXvXvX$ 6 vX0 0 $ $ $ 0 0 nXnX0 0 0 MX0 0 vX",
"nX6 nXnX$ 0 0 8 bX$ 0 0 0 0 0 0 0 $ 0 0 0 0 nX$ 6 $ bX$ 0 q bXbXbX$ 7 bX0 bXbX7 0 vX8 8 8 bXbX6 # # 6 $ 0 nXnXnXnXnXnXnXw 0 0 vX",
"e w vXnX0 0 vX6 8 0 vXbX$ 0 0 0 0 0 0 0 nX0 vX6 7 bX$ 0 q w $ bX8 $ bX5 $ 6 7 vX$ 7 6 6 $ 0 0 0 $ vX0 0 nX0 vX0 0 0 nXnXw nXnXvX",
"q nX0 0 vXnX$ $ 8 8 8 7 8 bX$ 0 nX0 0 0 0 0 6 5 8 $ $ vXnXw nXvXbXbX0 $ 6 5 8 bX8 5 $ q nX8 0 0 nX0 0 0 0 0 0 0 0 nXnXnXMX0 $ vX",
"q q 0 q vX0 vX6 bX0 vX$ bX7 7 $ 0 0 nXnX0 8 5 7 8 7 6 8 bX0 w 0 bX7 8 0 0 $ 6 bX7 0 nX0 0 bX0 0 0 0 nXnX0 0 $ nXvXnXnXnXMXnX0 $ ",
"0 0 0 nXvXnXvX0 0 vX$ bXbX7 7 7 $ $ nXnX$ 6 6 8 6 8 8 7 8 $ MXMX$ 6 5 8 $ 0 6 7 $ $ 8 6 8 8 7 nX0 $ nXnX0 0 0 0 0 0 nXnXw nX0 0 ",
"0 0 nXnXvXnXnXnXnXMXw MXq 0 bX8 8 vX0 0 7 7 bX8 8 bXbX7 6 7 0 w 0 $ 7 7 bXvXvX6 6 bX0 0 nX0 bXvX0 0 0 0 0 nXnXnXnXnXnXnXq nX0 0 ",
"MXnX0 nXvXnXnXnX0 0 nXq MXw nXvX$ $ 0 vXvX8 7 bXbXbX8 6 5 5 bXq vXbX8 7 8 bXvX7 vX0 $ bXbX$ 0 0 0 0 0 vXnX0 0 nXnXnX0 nXw nXnXvX",
"q nXnX0 0 0 0 nXnXnX0 0 0 MXL.q 0 $ 0 0 7 bX8 bX$ bXbXbX7 5 5 8 7 bX8 7 7 6 5 8 vX7 6 5 5 6 5 4 bX0 nX0 0 0 nXnXnX0 nX0 w $ 0 vX",
"q nXnXnXvX0 0 0 0 0 0 0 0 0 MXL.MX0 vX0 0 bXbXbX$ $ $ bXbX7 5 5 4 6 7 7 5 6 7 bX6 5 5 4 5 5 4 # # 5 $ $ $ 0 0 0 0 0 nXnXw nXnX6 ",
"q nX0 nX0 nX0 0 0 nX0 0 0 0 $ w e MXnX$ 6 8 bXbXbX$ vX$ bX7 8 bX8 8 bX7 8 vXbX7 7 7 8 bXbX7 6 5 # 2 # bX0 0 0 0 0 0 0 0 MX0 nXMX",
"MXnX0 0 vX0 0 nX0 0 0 0 0 0 0 nXe L.MX$ bXbX7 7 8 8 $ $ vX$ bX$ $ bX$ 0 0 8 8 bXbXvX0 MXMXq nX$ 8 5 4 5 bX0 0 0 $ 0 nXnXq 0 0 q ",
"MX0 $ nX$ nXnX0 0 0 nX0 nXnX0 0 MXe L.nXbX8 6 5 6 6 7 7 $ vX0 0 0 0 0 8 $ 7 bX$ 0 0 bX$ q cXe MXvX7 6 4 7 $ 0 0 0 0 0 0 MX0 0 0 ",
"q 0 0 nX0 nXnX0 0 nX0 0 0 $ 0 0 nXMXe MX5 $ 8 6 6 8 7 6 6 6 bXvX$ bXvX8 8 vX$ 0 $ 7 bXbXbX0 w cXw vX6 6 6 bX0 nX0 0 0 0 q 0 0 vX",
"q 0 nX0 0 0 nX0 nX0 0 nXnX0 0 0 nXnXe e 0 0 bXbXvX$ 7 5 6 4 6 8 bXbX7 vX8 0 0 $ 5 7 5 8 bX7 bXnXe q bX6 6 7 vX0 nX0 0 $ q 0 0 $ ",
"q 0 0 0 vX0 0 0 0 0 0 nX0 0 nXnXnX0 0 e e e q 0 0 8 7 8 8 7 8 $ 7 $ 8 bX$ 0 MX0 bXbX6 bX$ $ 6 bXnXq 7 6 7 7 $ 0 0 nX0 0 MX0 nXvX",
"q nXnX0 vX0 0 nXnX0 0 nX0 0 0 nXnX0 0 q MXnXq w vXvX$ 8 bX$ vXnX$ vXvX0 0 q w nXbX8 bXbXbX$ bX6 8 8 6 8 bX8 bXvX0 0 0 0 MX0 nX0 ",
"nX6 0 0 0 0 nX0 nX0 0 0 0 0 nXnXnXnX0 0 0 0 0 nXnX$ 7 7 bX$ 8 q nXnX0 nXq MXMXMX$ $ bXbX8 $ 0 7 5 5 8 $ bXbXbX$ nX0 0 $ MX0 0 vX",
"w cX0 0 $ 0 0 0 0 0 0 0 0 0 0 nXnXnXnX0 nX0 0 0 q bX5 6 8 7 4 bXMXq q MXw q 0 e MX0 bX8 8 bXvXvXbXbX$ bX8 bXbXbX0 0 0 0 q $ 0 0 ",
"q q 0 0 vX0 0 0 nX0 0 0 0 0 nXnX0 nX0 0 0 0 0 0 nX8 8 bX$ $ 8 nXcXe L.mXnX0 0 q w nX$ bX8 8 bX$ $ bXbXbXbX$ bX8 0 0 0 0 q 0 0 vX",
"MXnXnX0 vX0 nX0 nXnX0 nX0 nX0 nXnXnX0 0 nX0 nX0 vX8 bX8 $ 0 w MXq nX0 0 0 0 nX0 MXMX0 $ bXbX8 8 8 bXbX$ bX$ bX8 vX0 nXnXq 0 0 vX",
"q q nXnXvX0 nXnXq nXnXnX0 nX$ nXnX0 nXq 0 0 nXnXbX8 8 bX$ q 0 nXnX0 nXq 0 0 nXnXnXMXMX0 vX$ 8 bX$ $ bXbX8 8 8 8 0 0 0 nXMX$ nXnX",
"nX0 0 nX0 0 0 0 0 0 nX0 0 0 0 0 nX0 nX0 nX0 0 0 8 8 bX$ nX0 0 0 nX0 nX0 nX0 0 0 0 0 MXw MXq 0 vXbX8 7 7 8 bXbXvX0 nX0 nXw $ $ vX",
"nX0 0 0 $ nX0 nXnX0 0 nX0 nX0 0 nX0 nX0 0 nX0 0 8 bXvX$ 0 nX0 0 nX0 nX0 0 nX0 nXnXvX$ 0 q MXw L.q 0 $ $ $ vX0 nXq q nX0 MX0 $ vX",
"q 0 0 0 0 0 0 0 nX0 0 nX0 0 0 nXnX0 nX0 q 0 0 vXbXbX$ nX0 0 0 nXnX0 nX0 q nX0 0 0 8 6 7 bX$ $ 0 q MXq q MXMX0 0 q nXq 0 mX0 0 vX",
"q 0 nX0 vX0 0 0 nX0 0 nXnX$ 0 0 nX0 nXq nXnX0 $ 8 vXvXnXnX$ 0 0 nX0 nXq nXnX0 0 $ bXvX0 nXq q q q 0 nXq q nX0 $ nX0 0 0 mX0 nX6 ",
"MX0 0 0 $ 0 0 0 $ 0 nX0 nX0 0 0 nX0 q q q nX0 8 6 $ MX0 nX0 0 0 nX0 q nXvXvXvX$ bXvXq w e q nXnXq nXq nXnXnX0 0 nXq 0 0 MX0 q e ",
"q nX0 0 $ 0 0 0 0 0 nX$ 0 nX0 0 nXnXnXnX0 vXvX$ 7 $ nX$ 0 nX0 0 nXq 0 0 $ bX8 7 bXMXMX0 0 nX0 0 nXq 0 q q q nXnXnXnXnX0 w vXnX0 ",
"MX0 0 0 vX0 nX0 $ 0 0 0 0 0 0 0 0 nX0 $ 8 5 7 $ $ $ 0 0 0 0 0 0 0 nXnXq MXnXnXMXnX0 0 0 0 0 0 0 0 nXnXq nXnXnX0 q q nXnXMX0 q vX",
"q 0 nXnXvX0 0 $ 0 nXnX0 nXnX0 nXnX$ $ 8 6 7 8 7 $ vX$ 0 nXnX0 nXnXnXnXMXq nXq $ 0 nXnX0 nXnX0 nXnXnXnXnXnXq nX0 nXq nX0 w 0 nX0 ",
"q 0 nX0 $ 0 0 nX0 0 0 nX0 nX0 0 w nXvXq vXbXbX$ 0 bX0 0 0 nX0 0 0 nX0 nXnX0 nXnX0 0 0 nX0 nX0 0 0 nX0 nXnXnX0 nXnXnXnX0 MX0 0 vX",
"q nX0 0 $ 0 0 0 0 nX0 nX0 0 nX0 q e w $ q MXmXw w q nXnX0 0 nX0 nXq 0 nXnXnX0 0 0 nX0 nX0 0 nX0 nXq 0 nXnXnXnXnX0 0 0 0 w 0 0 vX",
"q nXnXnX$ vX0 0 0 0 0 0 0 0 nX0 nXq w e w MXq nXnXnX0 0 0 0 nX0 nXnX0 nXnXvXnX0 0 0 0 0 0 0 nX0 nXnX0 nXnX0 nXnXnX0 0 0 w nX0 $ ",
"q 0 nXnX8 $ $ $ vXvXvX$ 0 vXvXvXvX0 vXvXvX$ $ $ vX0 0 $ 0 vXvXvXvX0 0 vX0 $ $ $ vX0 0 $ 0 vXvXvXvX0 0 vX0 0 0 vXvX$ $ vXmXnX0 vX",
"w nX$ nX0 0 0 0 0 nXnX0 nXnXq 0 nXnXnXnXnX0 0 0 0 nXnX0 nXnXq 0 nXnXnXnXnX0 0 0 0 nXnX0 nXnXq 0 nXnXnXnXnXnX0 0 0 0 0 0 0 0 nX0 ",
"MX# 0 nXnX0 0 nX# 0 nXnXnXnX0 0 # 0 nX0 nX0 0 nX# 0 nXnXnXnX0 0 # 0 nX0 nX0 0 nX# 0 nXnXnXnX0 0 # 0 nX0 nXnXnXnX# 0 0 0 nX0 0 0 ",
"cXvX0 0 0 nX0 e 0 0 0 0 nXnX0 e vX0 nXnX0 nX0 w 0 0 0 0 nXnX0 e vX0 nXnX0 nX0 e 0 0 0 0 nXnX0 e vX0 nXnX0 0 0 e vX0 $ 0 nX0 nXvX"
};
