/* XPM */
static char *_a722a11589d48839019885b88f23826Nme6qLxrrxJinjLK[] = {
/* columns rows colors chars-per-pixel */
"64 64 227 2 ",
"   c #2D325D",
".  c #1D1B6B",
"X  c #191768",
"o  c #1E1B73",
"O  c #1A167A",
"+  c #1E1A7A",
"@  c #181474",
"#  c #100C66",
"$  c #201F6F",
"%  c #211E74",
"&  c #221E7B",
"*  c #1E2077",
"=  c #24236E",
"-  c #292A6A",
";  c #2F316B",
":  c #2D3065",
">  c #313568",
",  c #252474",
"<  c #282575",
"1  c #2B2B75",
"2  c #25227C",
"3  c #29267C",
"4  c #2C2B7B",
"5  c #302E7C",
"6  c #302E77",
"7  c #2E3074",
"8  c #333473",
"9  c #33327C",
"0  c #3B3C7C",
"q  c #383A76",
"w  c #3E417D",
"e  c #43467C",
"r  c #4C5276",
"t  c #1E1884",
"y  c #221D83",
"u  c #231E8A",
"i  c #262283",
"p  c #2A2683",
"a  c #2D2A84",
"s  c #26228B",
"d  c #2A258B",
"f  c #2D2A8B",
"g  c #272980",
"h  c #312E84",
"j  c #312D8B",
"k  c #2E3082",
"l  c #343284",
"z  c #383683",
"x  c #3B3A84",
"c  c #35328C",
"v  c #39368C",
"b  c #3C3B8C",
"n  c #363989",
"m  c #2B2592",
"M  c #2F2993",
"N  c #2E2899",
"B  c #322D93",
"V  c #332D9A",
"C  c #363293",
"Z  c #393593",
"A  c #3D3A94",
"S  c #363299",
"D  c #3A349B",
"F  c #3E3A9B",
"G  c #3E39A3",
"H  c #3C36A1",
"J  c #413F88",
"K  c #413D94",
"L  c #413D9B",
"P  c #423CA3",
"I  c #423FA8",
"U  c #3E4282",
"Y  c #434484",
"T  c #44438C",
"R  c #474889",
"E  c #4B4C8D",
"W  c #494A86",
"Q  c #4F518C",
"!  c #54568D",
"~  c #444393",
"^  c #4B4B94",
"/  c #45429B",
"(  c #49469C",
")  c #4C4B9B",
"_  c #474896",
"`  c #504E9C",
"'  c #4F5195",
"]  c #535495",
"[  c #54539B",
"{  c #5A5B9C",
"}  c #585996",
"|  c #5E6198",
" . c #65689A",
".. c #6D729B",
"X. c #63698D",
"o. c #4541A2",
"O. c #4A46A3",
"+. c #4D4BA4",
"@. c #4A45AA",
"#. c #4E4AAA",
"$. c #4741AB",
"%. c #514EA5",
"&. c #514EAB",
"*. c #5453A4",
"=. c #5857A5",
"-. c #5B5BA4",
";. c #5552AB",
":. c #5956AD",
">. c #5D5BAB",
",. c #5659A4",
"<. c #534EB3",
"1. c #5653B3",
"2. c #5955B4",
"3. c #5E5BB3",
"4. c #5A55BA",
"5. c #5E5ABA",
"6. c #5756B7",
"7. c #4F49B2",
"8. c #605FAE",
"9. c #605DA7",
"0. c #615EB4",
"q. c #615EBB",
"w. c #5E60B2",
"e. c #5E62A1",
"r. c #6263A5",
"t. c #6B6DA4",
"y. c #6363AC",
"u. c #6A6BAC",
"i. c #6769A5",
"p. c #7274AD",
"a. c #777BA9",
"s. c #6463B4",
"d. c #6867B4",
"f. c #6B6BB4",
"g. c #6562BB",
"h. c #6966BC",
"j. c #6D6CBA",
"k. c #6769B9",
"l. c #716EBD",
"z. c #716EB5",
"x. c #6F71B7",
"c. c #7374B5",
"v. c #7679B3",
"b. c #7B7DB6",
"n. c #7474BC",
"m. c #7B7BBC",
"M. c #7778BA",
"N. c #6F74A7",
"B. c #5D58C1",
"V. c #625DC2",
"C. c #6662C2",
"Z. c #6965C2",
"A. c #6D6AC3",
"S. c #6C68C9",
"D. c #716EC3",
"F. c #726DCC",
"G. c #7574C2",
"H. c #7877C5",
"J. c #7B7BC4",
"K. c #7572CC",
"L. c #7976CC",
"P. c #7C7BCB",
"I. c #767AC4",
"U. c #736ED4",
"Y. c #7672D3",
"T. c #7D7AD3",
"R. c #7B77D5",
"E. c #7F7AE0",
"W. c #807ECB",
"Q. c #807EC7",
"!. c #817ED3",
"~. c #827EDB",
"^. c #817CE0",
"/. c #7E81BB",
"(. c #7E81B6",
"). c #7E84A6",
"_. c #7F81C2",
"`. c #7F80D2",
"'. c #8284BC",
"]. c #8588B9",
"[. c #868CAD",
"{. c #8283C4",
"}. c #8689C3",
"|. c #8A8DC5",
" X c #8483CB",
".X c #8B8CCB",
"XX c #8788CA",
"oX c #8F92CD",
"OX c #8F92C7",
"+X c #9194CC",
"@X c #9799CD",
"#X c #8583D3",
"$X c #8887D5",
"%X c #8B8BD3",
"&X c #8584DB",
"*X c #8986DA",
"=X c #8D8BDC",
"-X c #8788D7",
";X c #8E91D3",
":X c #8E91D8",
">X c #9394D4",
",X c #999BD5",
"<X c #9494DC",
"1X c #9B9DDC",
"2X c #9798D6",
"3X c #918EDC",
"4X c #9EA1DB",
"5X c #9CA1C9",
"6X c #A3A7D8",
"7X c #8985E1",
"8X c #8D8AE4",
"9X c #8A86E7",
"0X c #918EE9",
"qX c #9593E5",
"wX c #9B9BE3",
"eX c #9D9CEA",
"rX c #9796E9",
"tX c #9B99F1",
"yX c #A19FEC",
"uX c #9EA1E4",
"iX c #A2A3E3",
"pX c #AAABEC",
"aX c #A5A6E9",
"sX c #A4A3F2",
"dX c #AAA9F6",
"fX c #B4B5F7",
"gX c #B0B1F0",
/* pixels */
"l c A n ; t.=.o u N t D N u *.*.p B G D S P y B.U.O G C B F s y y.{ , L S y C v 1 } v.8 x ~ g B S c _ l.i M k n k n V M Z.,.g f ",
"9 K A ~ e t.=.2 m d 2 2 u d =.8.c c j a 3 v c 3.Y.c A 2 c a a l u.{ 5 n a j v b z } u.0 x b v C f n ^ I.L L k n n n U C x.,.S U ",
"+XpXW.W.'.>XqXT.*X!.wXJ.T.R.%XXX{..X}.1X.X>X2X1XaX>X>Xm.fX.X.X2XuXwX<X<X<XgXwX<X;XiXdX2X2X>XpXwXrXsX4XfXrXtX<XgXdXuXrX&XuX:X`.`.",
"! p.4 4 6 z ~ L ( ^ /.Y ~ A b 9 q Y Y m.{ Y } R w ^ R U 2X] E ^ J ~ [ E ] .X{ E _ ) ) *.^ T m.{ U U w U h v z 9.{ n A k U n U U ",
"Q p.f D L A P I C 9 v.; 4 B c C Z c f K.O.2 L c h ( c p &XA v a D j b , q m.^ z A F D o.A a j.R C / z x C j h 0.) h P L U U Z B ",
"e  .a d j j d B v x a.q 3 j a a c c c T.%.& j a j A j c T.L f & C f v 1 q M.R z Z F D P F z c.E a n 8 8 j h J u.` l L h k 7 k g ",
").].f.y.r.c.s.k.-. .[.X.Q [ ] R e Y E }.u.Q ] W E Q Q ] }.r.! Y ) ' } ! | ]. .] { >.3.=.[ } (.| { { ! } { ` r.'.t.| 9.{ t.t.u.c.",
"../.P. X}.1XJ.J.c.b.[...r.{.|.+Xt.p.u..X'.|.>X+X,X}.b.v..X}..X.XwX<X.X}./.,X|.oX>XwXwX_.m.M..Xp.M.m.OX@X<XW.b.'.(.b.3X%X6X].M.z.",
"< o p p . M.) & i h = , h o -.f.. p < 4 3 a % L 3.% 3 2 3 a c o =.j.% 2 j i a a , 0.y.o 2 3 a 2 3 3 T ` j c 4 4 6 6 d o l.[ < 3 ",
"A c C c ; b.*.p B D c Z o.c r.u.a Z j V B Z B 1.C.B D j C S F c >.j.h S H H P L 2 >.y.1 z c D S C v [ 9.C F a l J J P K W.9.h j ",
"9 5 , 8   ..! 9 j p 4 < a 4  ..., s O i O t O D @.y s O y i d 3 W { 1 h p j c 4 7 ! ! : 8 , a a h 8 W ! 9 v - 8 6 8 K J z.Q < < ",
"I.=Xj._.).6X,X=XT.Y.=XH.K.P.6XpX&X^.Y.9XR.F.F.9X0XY.R.U.0X9X7XT.2XiX X*X~.tXtX&X}.+X,X'.XXG.!.8X!.W.oX2XW.$X_.oX<XW.qX3XfX6XQ.W.",
"*.K.O.&.R } +.#.7.#.7XS.<.$.` ` ;.2.+.Y.3.O.O.%.2.O.&.+.R.K.:.+.*.;.O.&.<.E.^.1.O.( ;.) ;.O.q.Y.&.&.` =.I 1.O.w.s./ $.P { K L P ",
"z G.j S 2 3 d m V M T.;.m m i i 2 g 2 3.O.2 2 2 2 & 3 2 5.;.p 2 i & + d i q.5.i f i d i B p O.5.M j 5 h s S g +.3.f N B h h j K ",
"; m.p B h j S B V 2 H.~ O m s f p p 2 Z.#.p j p i h f 2 g.:.p f B f c l , d.s., Z i B d j p _ ;.f c 4 a s D g ) w.g s B % 6 j d ",
"e 1X~ O.+.%.<.@.+.b 1Xy.F @.F Z O.L A #Xg.Z ( / L +.O.c K.Z.A O.o.A ) ) 9 J.J.b &.L @.O.;.) d.G.( *.' ) @.6._ k.`.( @.0.^ [ *.P ",
"_.M.J. XG.eXrXR.P.n.J. XG.j.=XeXP.D.P.T.3X=X`.<XsX X=X#X=XP.#X#X1XpXJ.#XP.R.7XP.#XwXgXM.J. XG.=X&XI.>XpX!.9X-X$X%X-X7XT.wXuXj.`.",
"1 9 9 5 < =.*.< l 4 1 l 1 1 ^ s.3 3 4 4 l 4 4 T ,.4 z a v 3 a 4 E { = l p p c 4 < ) u.- 1 9 h h k 1 ' e.p p 2 , 1 a j p } { $ 1 ",
"U ~ / ~ c K.D.c K Z A b A ) d.#XZ F Z c c h Z *.D.v A j C j C a >.d.k v c c c A 3 3.K.z a b b l Z l 8.n.S S j l a c D S j.J.n Z ",
"4 z l l 4 >.3.3 3 3 l 3 4 x ) d.p c a p a 2 l / g.l 4 o 2 3 p 2 / ;.< , < 1 < 3 2 #.q.p 2 9 z = l 2 ' 8.p d p h 2 a f i *.u.4 a ",
"M..XJ. XM.:XwXJ.J.J.<X%XJ..X.XwXj.G.d.J. Xj.M._.aX X%XJ.:X#X XP.=XrXJ./.].@X.X X-XtXsX9X*X.X1XOX<X.X1XaXP.~.P.;X%XP.T.D.+X4XG.P.",
"E M.] ] T ^ ' _ ^ ^ G.u.E ] ' ] { >.) n.J.[ ,.{ [ ^ [ [ H.d.) ( O.;.^ E ! (.v.[ :.1.1.7.=.] v.p.,.*.} { ( ;.) d.n.^ #./ E ] T ) ",
"l K.K j j f j j f i C.:.& v v a a B i 2.q.a a a p A v f F.2.i B m d p a 4 j.0.f V M V V V a 0.=.p Z a a S G M 3.C.i V H p v f B ",
"3 &X~ 2 j c j j p + Z.1.X h v a d j i C.F.j c v v ( j + S.2.+ c f i a 3 % S.V.+ B B S V j p g.:.i o.c h G G y 5.Z.@ N G 3 z B M ",
"Y _.} T T ^ T ^ ~ ^ J.J.{ Y { ^ ~ [ *.H.J.^ } r.u.y.,.-.n.P.=.) E E ^ -.*.T.D.) [ [ ,.] ,.[ j.P.;.) E ] =.O.[ u.c.^ ;./ T R ^ A ",
"T z.} ^ [ H.G.f.j.y.J.J.j.u.<X%Xf.n.j.J.J.,.y.Q..Xn.M.z.n.G.y.y..X|.n.P.F.&XT.g.G.XX,Xp.c.z.H.!.h.d.c.J.g.3.y.f.r.[ g.s.{.c.-.( ",
"2 3 p 3 p g.1.p j 2 & 2 2 . 2.:.2 f p 2 p , o %.;.2 a a 2 2 p 2 ^ ^ o i u t u u 2 [ x.9 4 a y d M p ~ s.i y 2 , a a B f q.*.i s ",
"Z c F / c F.4.O f f f j f % 0.g.p Z F c A / h h.K.2 h Z C Z F 3 >.y.3 C V m V P p -.P.x n L f D V f O.P.d S c 3 l A S d D.>.d D ",
"9 - 9 n 4 >.%.X X X . , , . ^ ) < a l 4 1 z . [ j.. , 1 4 , 4 X } { - 4 p 2 2 l 4 ^ r.q 9 6 , a l 4 x f.3 c 9 8 = 9 j 3 u.] o c ",
":X<XP. XH.qXeXP.P.K.P.d.n.J. X XH.H.G.=XH. XJ.uXpX_.$XH.:XH.!.#XqX1XJ.{.W.>XW. X%X<XeX%X%X}.>X.X8X=X+XpX-X8X.X+X+X2XqXP.aX>XP.*X",
"d.P.A _ ( ( 3.+.s.g.!.( %.=.) *.=.;.+.#Xs.s.y.j.d.>.j.=.8XA.3.D.k.0.d.r.i.4Xm.d.3.g.C.h.d.>.>Xf.>.g.-.r.0.:.[ M.m.-.2.~ [ ^ ( #.",
") P.2 j L p F A i K P.l , a o c j a a K.~ c a 2 3 h v 3 !.*.o 2 j + b 1 9 m.^ 4 a D S G h 6 c.0 3 K 9 , L p 1 r.^ 1 Z c x x Z p ",
"Y H.i B D p F D Z b m.0 4 K h v A A c R.O.3 O.h ( K / i 0X%.2 A D D O.4 9 J.^ ~ F P G @.Z z {.' a A 9 9 A f l 8.) l o.Z x q j p ",
"} J.F &.*.( 7.@.( ^ a.e 5 c l l v v A L.:.v K h h a K h T.%.a j d B K v Y M.^ n L _ O.( b b M.^ ~ ) x Y L P ` J.-.T +.A E T O.+.",
".XwX#X8X=X6XyX0XtXaXgX,X<X=XiX1XJ.G.G.wX$XW.G.$XqX$X<X XeXwX-X#XsXsX=X<X<XdXiXwX<XsXfX>X%X;XaX.X#X%XOXaX-X*X X,X.XXX0X-XpX1X%X=X",
"1 6 3 3 : { [ z a a 9 9 z 3 } { 9 z z x l x 4 -.8.9 4 4 = l l 1 r.[ 1 z 3 4 v b q ' z.0 q x 9 9 5 9 W u.l h = - - 4 v v u.Q = , ",
"C Z L j ; p.,.o d m i d B & -.r.< a Z v h A & 2.h.a a A j Z l 4 ,.[ 3 F B s B j 1 E v.w x ~ B Z j c _ j.p C a x z n B f d.-.p j ",
"3 c C l >  .^ # y u & & y @ ^ } 1 a n l 4 v 4 =.g.4 % a 4 4 % < { ] < j y i j a = W t.8 7 4 3 p 3 3 T y.p g < 9 1 3 p i y.[ 3 a ",
"r.u.-.i.X.[.v.{ O._ ` ) %.~ t. .Q { ] ] E 9.{ M.}.r.] R { } E } (.a.} } ^ 8.y.{  .a.].X.| | r.r.d.y.(.OXn.s.r.i.i.r.d.y.|.b.{ y.",
"OX|.y.p...N.M.H.$XI.XXm.P.G.{.v.v._.{.<X.X>X}.XX%X;X>X}.pXwX}.>XOX>X|..X+XpX1X.X|.|.@X].}.|.iX2X:X_.].|.P.G..X+X,X.X#Xu.(.p.u.J.",
"Q z.2 c 1 l C f j c H.1 y d i 2 3 h , F.~ 3 a a 3 c a 2 !.v h 2 4 3 z 4 1  X^ 9 h h K ) a , d.b & v 4 1 d d . -.^ 3 B c 4 x c i ",
"! p.a o.C A $.$.Z b m.0 c D S j Z L C T.&.c Z c A L L v 8XO.A f A C T x 0 {.^ x A A I @.A v J.[ / %.J x Z F j G.=.v G F z b c j ",
"r X., A 3 l f c x 0 ..> 9 3 a , < 9 4 d.T 4 1 4 6 6 6 1 n.b 9 = 2 4 - >   ..e q x v A v z q t.Y 1 9 - ; 4 c 1 r.R 9 b z 0 w 9 n ",
"5XiX#XtX-XsXqX7X X'.6Xb.J.D.&XH.s.j.j.wX#XG.H. X!.l.D.l.sXP.P.l.P.#Xc.b.a.6X].}. X8X8XL.H.M.4Xb.J.H.}.>X*X=XQ.iX;X{.=X#X6X,X$X=X",
"x ) P $./ !.V.P P _ { T ;.o.F.D.O.<.&.S.V.5.V.Y.~.1.4.7.U.V.V.q.&X8X3.d.,.n.8.s.q.R.^.4.1.&.h.:.;.;.d.G.4.4.( -.>.;.4.<.#Xf.O.+.",
"3 c S B a &X1.M B j l 4 D s j.h.O u y u s u s P V.s u y m s M d ;.g., j 2 a i f y &.2.p i y d y D f ~ =.d B i h v j S B K.%.i d ",
"f p V p = M.( i D V h 5 A O u.u.2 d s y j s d o.V.s B s j j S a [ f.. v S Z S L 4 >.d.4 l j Z D D 3 _ >.f V l b 4 h S a W.*.2 C ",
"+.A O.~ 0 oXy.%.L o.A K O.3 /.'.h A A j A A C &.Z.p L A A L / b y._.4 +.&.O.O.%.x f.c.0 ~ L L P O.b y.H./ o.~ ~ ` *.2.O.wXy.v +.",
"G.dXj.Q.!.%XyXqX~.~.sX3X!.Q.1X2XqXeX*XdX#XG.=XI.*X8X*XG.dXsX#X=X2X1XXX<X=XsXdX<X<X$X1X<X%X_.<XwX8XqX:X:X`.`.`.uXrX`.0X7X-XuX-XT.",
"J n.6 6 5 % 6 < 6 6 l.J 6 z z 6 4 5 , >.K , l 4 4 z 4 , s.=.3 l 1 z , 4 1 >.3.5 4 . 4 1 l 4 ^ ,.3 k 1 1 u U s +.,.* c c 4 0 2 p ",
"J G.v h K J K K K i rX:.6 L < < l 3 2 A.;.3 p a 2 v l 3 D.3.a h 2 h 3 a a S.F.f F p f f A n +.6.N U k 9 N G k ,.k.g B S z z a o.",
"l j.h < 3 3 3 3 J X !.L . 6 X . 3 , $ >.( < . , , 3 2 o :.( . 4 , 3 o 3 , :.g.o p 2 3 * l a _ :.f n 4 7 s U * U w.1 g B < 1 2 Z ",
"c.iXM.z.z.m.Q.z.Q.9.yXQ.9.9.z.'.f.c.f.:XXXJ.M.Q._.J.m.f.>X Xu.m./.'.p.(.t..X;Xu.c._.|.p.(.p./.oXx.n.(._._.`._.`.1XM.W.Q./.}.y.l.",
"R y.[ =.[ Q.!.y.9.` 9.9.9.E m.W.' r.[ >.-.u.8.j.J.y.d.[ y.,.,.y.m.m.| i.} -.e.] r.XX.X{ e.Q } | ,.,.(._.,.6.,.,.9.9.0.:.b.'.` *.",
"h J j K p 4.q.p p p j p v p 9.Q.p Z a f p c p / q.c Z p p 2 f p #.2.M f d M s M t B.B.d B B Z Z U g ,.k.g s k g $ a d i 8.d.3 K ",
"K v K L h h.F.p d K o.p K Z 7.Q.f A j c j A f ;.S.a A j p p c i #.q.f s d B M S t B.C.d B Z S f V y ,.k.t g U g & J d i l.j.% D ",
"J ! ` E z Q.z.J ( J ` W J 9.i.z.9 ^ T z T U x -.J.T ) U x 9 T Y { N.e W 0 Y Y Y U M.c.U W Y ! w [ U | p.U _ R w 0 J L K b.t.J J ",
"Q.Q.Q.Q.M.1X~.!.Q.Q.pX~.Q.Q.W.W.J. XJ.XX<X XJ.-XsX{.=XXXwX<X%X_.}.oXb.}.}.iX1X.XXX4X4XoX,X].iXiX<X:X4XuX`.8X%X1X6XQ.!.z.OXOXW.!.",
"J z.K j p p p p p 3 C.<.3 v J v Z c p 1.5.c C c c j C c Z.3.C f j j f j D S.5.V D D f F U d 5.6.f U n k d S h :.8.a B u 5 < J d ",
"3 ^.&.j v K H B j y Q.<.& K K v F c p F.U.F / Z B L F f S.5.j j C p S f d U.B.B H G M D G N Y.6.N I n n F I j g.0.y P L K h K M ",
"< Q.J < < p h 3 h o 0.` . 6 5 < l 1 , s.>.4 b n z ~ b < >.[ < 4 = . 4 1 , d.[ 4 1 5 1 4 7 1 x.,.g U * 1 C K % ` =.% d y 6 6 J d ",
"Q.yXz.z.z.A.z.Q.Q.Q.yXwXz.Q.!.Q.H.P.G.eXqXl.P.=X=X-X=XP.sXqXG.H.{.{.}..XQ.dX<XJ.`._.`._._.(.:X`.`.`.x._.F.!.0.%X!.h.Q.Q.W.m.h.Q.",
"( ` K ( O.Q.Q.0.<.:.0.A.9.9.!.!.;.s.3.0.g.%.:.L.R.:.g.>.Z.g.>.*.P.P.>.k.0.h.q.;.Z.`.0Xk.k.w.w.k.k.6.k._.<.4.P 0.` :.<.7.!.z.P P ",
"h 6 j h 3 C.7.@ 3 i X i o X =.0.o j a o p 3 3 ;.3.& 3 o & 2 a % ;.+.@ 2 & + i p O #.U.g g C * g s t U 6.d u < % o K V t h.;.+ B "
};
