/* XPM */
static char *_c377e062b5546b388178707f348028deVEXrTQ7QeY05PAe[] = {
/* columns rows colors chars-per-pixel */
"32 32 46 1 ",
"  c #3D763C",
". c #3E793F",
"X c #41763E",
"o c #3E7D42",
"O c #437D43",
"+ c #497E46",
"@ c #3F8144",
"# c #448146",
"$ c #498047",
"% c #468549",
"& c #4B854B",
"* c #45894C",
"= c #4B894E",
"- c #50874E",
"; c #51884F",
": c #4E8D51",
"> c #538C53",
", c #598E55",
"< c #4D9154",
"1 c #539156",
"2 c #599057",
"3 c #569559",
"4 c #5C945B",
"5 c #569A5D",
"6 c #5B995E",
"7 c #61965D",
"8 c #61985F",
"9 c #5E9D61",
"0 c #639C63",
"q c #699E66",
"w c #5FA164",
"e c #64A166",
"r c #69A067",
"t c #66A469",
"y c #6BA46A",
"u c #67A96C",
"i c #6CA96E",
"p c #70A66E",
"a c #71A86F",
"s c #6DAC70",
"d c #72AC72",
"f c #7BAE76",
"g c #74B075",
"h c #79B077",
"j c #77B479",
"k c #7AB57B",
/* pixels */
">;8,&&&7%--q0--&y-->0y>-2q,>>,0-",
"aqpyqy7qqdqyy0dyqqdpppqfqpqyqqp0",
"4&&&>,X.O2&O+&4&O%8,&&%9#&O&:%&$",
"dtiyis0r2yyyyrd0dyiyyy0t0yeyyydq",
"&&31%&&9 %#::#&#0&==>3#OO3=%&16%",
"66ie469j693993eey0ttty6t6sq60yd6",
"6:3115:3>6::=:93<:9633<w33:56<3:",
"u:=<9e=#*93=*1w=<=6313:66:*ee%=:",
"66ie695i999si6w6s999ts999s966wi3",
"*%53:::w*@o<1@%*3o*&16**33%*=*1:",
"deieey9y0ieyitdyt9sssgydiy9ii9tt",
"0&%*>3%%o63=&50#O%43:=&9&:&33&=#",
"e464qy0y2iyqyyp2e4yyqe0s2y6000q=",
".O>&..O2&%O84OO&0#+#,4&&%2%X.%,O",
"q0pq42,q04>yy,48y448qp70ya00q0y0",
"q;>,0q>>,q0800p424dy084p27,0q,4>",
"r;,,70&+%01&=2q:;>q4>>-0-,&44>4,",
"qqfp008d4q9009t4f0qqpd0q4y880qp8",
"X+7;XXO4O+O>>O%O,OOO>2OoO4&XO>2O",
"pqyqqq0yqyydduswiyfdddykykdyyyd0",
"7+&&25OoO>:*<<3*%=94:=&9&>&:>&>%",
"pqyyyt341e99wwswe6t99039693et9t0",
">,y9>>:9*1*15<w1s566we3<:6<355w3",
"&:04:::u:=@55@*<9:::49::1e4::6w:",
"s909td999s95<9swe9ieew9i5s999eu1",
"3O%#=3%oo1:@@@1**@<:*&*3=*#11@%@",
"ytdtta0s9uesswuwt6teideyii0ss9ye",
"+&4,&==9%@ 45o@*5OO%>6%#=6:#%:4%",
"qqaqqyqs004ss600y9eqyy0eqgq00yd6",
"q,++,0-&#02:>6e+&>q4>>>q:>&44&>&",
"p27,0y972dq90yd348sy0q0f004qq484",
",,q7,47a44>et462p244qy448y4--4y,"
};
