/* XPM */
static char *d955249ee4ba45dda8b6955b42a78ae03WAt3U2pbAAaDWju[] = {
/* columns rows colors chars-per-pixel */
"64 64 174 2 ",
"   c #366A32",
".  c #2C7435",
"X  c #2D7738",
"o  c #2E7A3A",
"O  c #337236",
"+  c #397037",
"@  c #35763A",
"#  c #3C743B",
"$  c #357B3D",
"%  c #3A7A3E",
"&  c #42763E",
"*  c #41783F",
"=  c #357D40",
"-  c #3C7E42",
";  c #457641",
":  c #447C43",
">  c #4A7D46",
",  c #447E48",
"<  c #4C7E4A",
"1  c #517F49",
"2  c #368142",
"3  c #3D8345",
"4  c #3E8748",
"5  c #3E894A",
"6  c #428246",
"7  c #498047",
"8  c #448549",
"9  c #4B844B",
"0  c #458A4C",
"q  c #4A8A4E",
"w  c #52844D",
"e  c #58844F",
"r  c #51884F",
"t  c #4C8651",
"y  c #458D50",
"u  c #4B8D51",
"i  c #538651",
"p  c #5B8752",
"a  c #548C52",
"s  c #5B8B55",
"d  c #548E59",
"f  c #5E8F58",
"g  c #479152",
"h  c #4D9254",
"j  c #4E9558",
"k  c #4E9859",
"l  c #529256",
"z  c #599057",
"x  c #549559",
"c  c #5B945B",
"v  c #549A5C",
"b  c #5B9A5E",
"n  c #608C57",
"m  c #628E59",
"M  c #63945D",
"N  c #69945F",
"B  c #61985F",
"V  c #569D62",
"C  c #5B9D61",
"Z  c #649661",
"A  c #699561",
"S  c #649B62",
"D  c #6A9C65",
"F  c #6D9E68",
"G  c #709B66",
"H  c #729E6A",
"J  c #5DA265",
"K  c #5DA368",
"L  c #63A166",
"P  c #69A067",
"I  c #63A56A",
"U  c #6CA36B",
"Y  c #65A96C",
"T  c #6BA96E",
"R  c #73A46D",
"E  c #78A46F",
"W  c #71A86F",
"Q  c #65A970",
"!  c #6CAD71",
"~  c #75A670",
"^  c #7AA672",
"/  c #72AF74",
"(  c #77AC74",
")  c #74AB72",
"_  c #7AAB74",
"`  c #7EAA75",
"'  c #7FAB76",
"]  c #79AC74",
"[  c #79AE76",
"{  c #7DAE77",
"}  c #7BAC75",
"|  c #77AC78",
" . c #7DAE79",
".. c #67B172",
"X. c #6CB073",
"o. c #6FB376",
"O. c #6DB274",
"+. c #6FB37A",
"@. c #74B176",
"#. c #74B176",
"$. c #79B077",
"%. c #74B47A",
"&. c #7BB078",
"*. c #7CB179",
"=. c #7FB27A",
"-. c #7FB47C",
";. c #7CB27A",
":. c #75B97C",
">. c #76BA7D",
",. c #76BB7D",
"<. c #7DB87E",
"1. c #80AC77",
"2. c #82AE7A",
"3. c #80B37B",
"4. c #80B57D",
"5. c #81B47C",
"6. c #83B67E",
"7. c #84B77F",
"8. c #82B47D",
"9. c #88B47F",
"0. c #81B87F",
"q. c #7EB780",
"w. c #79BE83",
"e. c #85B681",
"r. c #8AB682",
"t. c #83B880",
"y. c #85B880",
"u. c #86B981",
"i. c #85BA82",
"p. c #87BC84",
"a. c #84BB82",
"s. c #89B882",
"d. c #88BB83",
"f. c #8ABB84",
"g. c #8CBB85",
"h. c #89BC84",
"j. c #8BBD85",
"k. c #8BBE86",
"l. c #8CBF87",
"z. c #8ABB84",
"x. c #8EBE89",
"c. c #90BC87",
"v. c #91BE8B",
"b. c #85C186",
"n. c #8CC189",
"m. c #8EC189",
"M. c #8DC38A",
"N. c #8FC28A",
"B. c #8EC38B",
"V. c #8FC48C",
"C. c #8CC38A",
"Z. c #91C48C",
"A. c #91C68E",
"S. c #93C68E",
"D. c #94C58E",
"F. c #94C78F",
"G. c #93C48D",
"H. c #94C491",
"J. c #99C691",
"K. c #93C890",
"L. c #96C991",
"P. c #97CA92",
"I. c #95CA92",
"U. c #98C992",
"Y. c #99CC94",
"T. c #99CE96",
"R. c #9CCF97",
"E. c #9ACC94",
"W. c #9DCB99",
"Q. c #9FD39B",
"!. c #9AD39B",
"~. c #A1CD98",
"^. c #A3D59D",
"/. c #A5D8A0",
/* pixels */
"8 0 h 8 0 #.0 @ 3 6 - 3 q @ b J 6 c 6 q q a 6 L W 6 6 6 9 6 v * L h 6 q 6 q 6 l 6 L v 6 b 6 0 0 q 0 v b 0 3 q 6 6 l * 9 / c O q ",
"6 q 6 8 0 T l 8 % $ % @ 6 @ l q % 9 * 9 6 9 : B P 7 7 : 6 * 9 * L z 9 7 * l * 7 7 B z 7 c 6 a q q 6 v B q 6 q 7 7 l 6 w T b : a ",
"B.K.&.i.6.A.V.7.i.5.n.W -.-.-.$.1.=.1.h.7.7.3.P.Y.l.h.3.N.3.7.7.S.m.7.7.5.Q.l.l.l.F.L.h.N.7.R.u.N.N.Y.Q.N.l.S.F.l.Z.h.h.P.S.d.h.",
"S S : r : 7 a 9 c c ) 9 r c r 7 q a a U B c a S c c c z =.S a B z z z z z 7.U S B z S M z l 1.z q q a z w 7 a z a a s r w w w 1 ",
"b J - h 6 0 l h 3 8 Y % 3 8 3 3 6 5 q Y k g 3 0 6 0 0 0 ,.v 3 6 6 0 q 0 0 / h 6 q 3 q q 0 6 Y 0 h q g 0 0 0 h C l h a r 6 q q 6 ",
"x v - q - 8 8 6 q b ! 9 8 6 q 8 9 6 h O.v q 6 0 5 q q q ,.J 6 6 6 9 q r q / v q r 7 l l q h ] l 0 q 6 6 q 6 q B 6 * 6 & 7 7 9 : ",
"1.^ H H A ` N N N E E n p 1 n e w > a ] f s a M M z s a { S s s s f n n n 1.N N N n M p n p 1.e s N f s N M n G N N N 1.1.1.G G ",
"1.` 9.2.2.~.2.1.` 7.1.E 1.D r.` P M P Z.1.1.$.d.7.1.1.] Z.7.7.l.L.J.c.9.1.J.9.c.f.9.9.1.1.1.9.D R =.1.1.h.=.1.9.5.1.1.9.9.9.1.9.",
"- % : - - ! l - % % 6 6 q 6 C b $ 3 5 3 $ 0 . k k 3 5 $ 5 3 0 $ b Y O % 6 6 6 0 6 C v 6 0 6 % 6 6 0 g h g 6 3 6 6 6 6 % @.q * @ ",
"l u u q 8 O.b 8 l 8 q 8 q 8 L I 3 6 5 3 3 g $ J v 5 g 5 g 5 g 0 b X.6 0 0 q g h 6 J v 0 q q 0 h 6 0 h l g 0 6 0 h l v a b.b q 0 ",
"* > * * > R s w 9 & w & * w U R + % % * @ 7 + z 9 % : + 7 # 7 7 a B 7 7 > w w r 1 z r > > & & > r r l a r 9 7 w & & e > 1.1 & & ",
"R 1.R E 1.U.m.7.E D 2.F R ~ m.S./ 1.] <.W / P =.3.W ) U 7.) @.3.5.l.1.5.{ m.h.u.5.l.h.=.{ =.3.5.3.3.5.<.=.1.1.=.h.7.l.d.Q.l.9.9.",
"b ! c c x I b c J b >.C c l b C v J v O.b v h k b v v k o.Y J v J b k J b ,...J v b C C C J Y Y v v v J v k v J b h l h B h h z ",
"0 J 3 2 - 3 $ 2 q 0 o.l 0 8 - 3 $ 3 3 J 0 3 2 $ 3 2 2 $ Y k 3 2 5 $ $ 3 3 J h 5 3 $ 3 5 3 5 h g 5 3 5 5 5 3 g k k 6 3 3 0 3 6 6 ",
"q T 0 q q q 0 l 6 - / u 6 8 % 6 6 6 3 T l 0 q 3 3 6 6 - Y z 6 0 q 3 6 0 3 Y l 6 h 6 q g 3 0 l h 6 3 3 5 6 6 q l C q 6 0 6 6 q 0 ",
"c 0.a z c z a B c z b.c q a 9 r r q 7 @.b r z 9 q z a q @.b r c b q c l 6 T b q b q l B l b T L b b v v l l c L T v r v z z z l ",
"] ] 3.W $.V.b.$.$.<./ h.$.U m.j.$.W W 0.b.0.0.b.b.<.b.<.b.<.<.<.Z.b.b.$.@.] $.$.:.R.Y.3.3.7.$.<.u.W P.F./ =.u.y.<.u.5.1.Z.Z.P @.",
"9 9 p 9 q S B 0 0 q : a 9 : S S 9 : - 7 9 q 9 l z 7 9 * 7 % q * v z q 7 6 6 6 7 * b b 6 6 q 6 7 0 & c c & * 7 : 7 q 7 : B B * 7 ",
"9 7 q q q J Y 0 q q 0 l u l W W u q 0 8 6 q l v ! h l q 0 6 l 0 b l q q 0 6 0 0 0 L L h h l q h l q Y L q q q q 6 0 0 q Y Y 0 q ",
"9 7 q q q L T 0 - - - 7 : 9 b b 6 8 6 - - 6 u l b % 6 % $ O 7 @ v q 6 6 6 6 % 3 3 h z 6 % 3 3 % 6 3 l h % 3 % * 6 * - 3 v b % * ",
"R 1.E ] ] 5.Z.P 3.3.u.d.2.9.c.j.P R E E R E ] 3.F.1.7.5.y.3.u.] 3.1.W W ] 3.3.1.u.Z.F.l.7.d.l.7.h.5.Z.d.=.5.3.h.l.=.3.{ l.S.] 1.",
"N 1.N M M M U p c z R P n M n n S B P W ) D S S U B D S 3.D D M D D N B U <.3.R N P R D B P 1.P S S T B B P L / T c c l z S r r ",
"8 / q 8 g 3 g 3 5 0 Y v 6 q 6 8 6 2 5 C C g 3 0 0 g 0 5 Y g 3 5 $ 6 3 $ 0 J J 6 6 3 0 5 3 0 v h 5 5 g 5 3 g 5 v k 5 g 5 5 g 5 3 ",
": :.q - u $ 0 0 3 6 J h - 8 : 8 0 $ 5 J Y h 0 l 0 k 0 8 O.v 8 0 3 g 0 $ 0 Y J 3 g 5 q g 3 h J k 3 0 g 5 g g 5 k g 3 g 5 2 0 5 5 ",
"n 2.n n p p z z p a 9.N N m n n n M N 3.D p E D U R G M 1.S f n a M z N N { R c D a D N B p 1.1.M B c B B B z S B l z a B r a w ",
"p G p N N ] R S R P u.] E H 9.9.D P G 1.R B G W 1.R ] D 1.U G S =.5.W { 1.7.1.R 1.3.c.1.1.R 9.3.R W W W U S P T B M L c { S z z ",
": 6 : 6 6 Y l - - $ - @ - % B b 3 - 0 0 6 8 3 v l 3 0 % 0 - 9 $ z h 3 6 $ 6 % % 3 v J 3 3 6 0 o 6 3 h k 6 $ 3 % 3 6 5 3 L h % $ ",
"l 7 h q 5 :.k o 8 3 $ 3 q % Y L 3 3 0 3 g u 3 Y J 8 0 3 3 3 g $ Y v 6 g 3 0 3 g 3 J Y 3 h g g 6 g 3 v L 0 3 h 6 6 h 0 6 O.v 3 g ",
": & > > & P q + + +   + :   s > 7 7 r 6 9 r # B P 7 7 6 > & r 6 B r # 6 + 6 * 9 : z z * a 6 7 7 : & l B > & 9 * & q *   P r # 7 ",
"9.9.9.5.] L.d.3.R W 3.) 1.G 9.R D S G W ] W R y.N.) / G 3.R $.G m.h.] =.] h.3.7.d.h.l.$.h.] 7.h.h.7.Z.P.3.=.h.5.7.l.y.1.R.h.3.h.",
"D W a c a B l c L L ;.B B B P z c b S $./ T / / @.P Y T a./ U P T T S U T h./ P / P $.P T L @.W P L P P B B L P B B B l P z z c ",
"c P * 8 q 8 q l h q Y - % 7 7 % 9 0 0 L l % r $ 6 8 6 0 Y l 3 3 3 6 % 0 q Y b 6 6 6 l 6 6 q L r 0 q 6 7 q 0 q z l 7 l 7 q * 0 6 ",
"b b 9 l 6 q 0 l 0 r T 6 6 l r 0 h - k ,.h q h 8 q v q 0 b.J % 0 q z 8 q u ! C , d t d d d , | d t V , , j y t Q d 0 u 8 l , q q ",
"P L a z q c a a a b T : 6 % * & 8 - q T q 0 6 6 6 q 0 7 O.l - q 6 9 : 9 9 I V t d t d t t t Q t , t y , t - - V 8 t a 8 C q r a ",
"h.N.7.l.u.^.P.N.F.Y.R.j.j.] N.j.P R R d.) R P ] 3.] 3./ F.3.3.5.Z.L.h.S.v.W.v.v.| e.v.H | e.v.| q.q.w.w.p.q.q.x.| e.e.-.^.V.6.j.",
"& 7 & : 7 P f > : 7 & : r & S B > r 7 z r r > B B 7 r 7 a 9 a r B c 7 r , t < < d Z | , d V t t t , d V , - , - - t < ; W s # > ",
"3 l 0 q q Y v $ 6 3 % 3 u % Y Y 3 h - 6 8 0 3 L J 3 3 - 5 % 0 - Z V - < = , - d , d | , t , , , t , q.j = = < , 3 q 9 - X.x % 8 ",
"6 a 6 0 7 L a @ * % % % 7 % l l - u 3 6 6 9 6 J T q 0 3 9 6 q - V < - , = , - t , d Q , t , , t , = < < , = < , - 8 6 & L a : 8 ",
"G H N N N 2.E N n e N 1 p s N N 1 M p M n N n G E M n e N e n n q.q.1 q.m F A F A | | A Q d Q A q.d q.q.q.< q.1 R G G N 2.E G D ",
"9.f.E E G 9.1.1.9.1.c.1.1.1.1.1.G 1.1.l.5.7.3.9.Z.c.j.5.Z.3.9.m.r.r.q.v.e.W.v.v.v.v.r.q.H.q.W.v.q.q.q.v.q.q.q.q.r.2.2.1.9.E 1.E ",
"z C $ q % - 0 8 0 8 L 8 - - - - 3 8 o ..6 8 8 8 0 3 u 3 :.0 3 3 , , , , , w.d t , , y y , , V d 3 q 3 3 0 3 % l 6 - 6 q : 8 q : ",
"v J 0 l 0 l v l l g X.u 0 0 u g g h 8 ,.h h 0 g g q l 0 ,.l 0 5 < < j j t q.d y y y y V t d Q d g k l q l u u L l a l a q q q 6 ",
"a f * 1 * 1 7 * p r S > & & & * > 1 : W r r 7 > 7 7 r 7 ] a 7 9 ; , , , , F , , , t , t t d Q t > 7 : * 7 : 9 M w > w > w e e w ",
"Z.Y.j.m.u.L.l.3.y.3.Z./ R S E G z M B 3.P U S U W P R P N.$.] ) q.q.q.q.q.q.q.q.| q.Q q.F Q | V W ] ] ] ] ] 1.7.=.$.2.2.G.9.9.9.",
"0 v g l l O.J v v k L v k k ..Y h k k Y J Y C O.Y Y J v O...Y Y q.q.w.V j w.V w.Q q.w.Q V V w.V b v J Y J v C J L L I L 0.P b c ",
"3 5 5 5 0 ..k 0 3 3 8 3 0 3 Y J o o $ o 3 3 o g g 5 2 o 2 2 3 2 w., = = o X y y , d y , = = = = 0 3 h k 0 3 8 4 3 - 0 8 X.u 3 $ ",
"6 0 0 - 6 O.l 2 q 0 0 0 h 6 T J 6 3 0 - 8 0 2 k l 0 0 0 3 g u 0 , , X = , , d y , V d t t y y y q 8 k C q 0 u 8 8 8 a 8 0.l q 7 ",
"9 q l 7 r b.b r 8 7 7 9 h 7 ) U 8 8 u % q u - b l 0 6 q 6 l l q w.q., q.d y V d , q.V t d d d t x a b L a r c a b c B a b.M 9 w ",
"] u.R =.3.h.m.u.5.W P.R ) j.y.l.M.M.<.b.a.) / W <.3.<.T I.b.@.b.b.0.b.b.<.K.!.<.d.0.b.I.0.$.b.Z.<.a.a.:.b.0.T a.<.$.6.6.m.N.&.7.",
"r M 6 7 : r 9 7 7 7 ) r 7 r 7 r : 9 8 c x 6 9 9 8 : 7 % P b 6 9 9 : 9 9 8 B L 7 q % 8 a 6 7 l a q q q 6 r q - c l 7 8 7 8 9 & : ",
"l / q 9 7 q 6 9 9 q <.v r 7 : 3 % 6 0 L b 3 6 8 3 - 6 3 U C 6 3 8 3 3 6 u J J 8 0 % 6 q 0 u x k 0 0 q 3 0 q 0 C C 6 0 6 - q 0 0 ",
"9 P 7 6 7 9 6 7 6 7 W a 6 + % % % - 6 b x @ % - - O 6 - C l 6 3 6 3 : - 8 l l : 6 6 - 6 6 q h q 8 3 0 8 3 8 6 x b - 7 6 : q 7 9 ",
"G j.G E R 2.1.1.E R f.1.R G 1.E G P P 7.h.E ] 3.1.R 3.R u.3.) 1.] 1.] R ] ] R R ] 7.5.] R ] ] 1.@.R 0.;./ ] W 7.l.] ] E ] 1.G U ",
"M ] N P N 1.5.P G N R N G S 3.1.S B n P ] P ) W 3.S ] P R S S D ] ] R S P S M S P 7.9.U P P P R R L ;.$.P D S U R D D D } } M N ",
"6 q 3 h 3 C J - 0 - 0 3 0 3 J b 3 8 2 3 3 3 g 0 v 3 g $ 6 3 3 3 k v 0 $ 5 3 $ 5 2 J b 0 8 5 3 8 0 3 k k 3 3 2 3 % 3 3 - J J % q ",
"q q 0 C 6 Y O.% q 8 u q h 8 Y Y 3 g 8 8 3 3 l k C - 0 $ 0 0 0 5 l v 5 $ 0 0 - 0 $ C v 5 0 0 5 8 g 3 V v 3 8 8 0 3 u 0 3 X.J @ q ",
"1 e r n e 1.G z e s p p w p R R w 1 p 9 > e s G R f n r a 1 n r M M z M > n p r p G ) 1 c n p z M a S S r > s a s p w e R E w p ",
"1.l.2.3.] l.5.] 3.3.G.N.5.d.l.j.1.1.$.5.5.1.3.7.J.d.7.1.G.7.7.3.7.u.2.d.1.L.Z.7.f.L.Y.9.m.u.J.l.l.l.F.F.j.7.l.Z.u.3.1.] c.9.G ] ",
"8 Y 8 8 6 0 q 6 6 3 J v 6 q - 6 0 0 3 C L 0 u 8 l h h q ! b q 8 8 0 - 8 8 Y L 8 0 h q 0 h 3 L k 5 0 0 0 u q g b k 0 q 0 q q * - ",
"0 ,.0 g 0 0 g g q 5 O.v 3 h 3 h 0 h 3 Y ..0 v u q h g g o.v 8 5 q g 8 g u O.Y 0 u g 3 h h 3 @.v 0 h 0 0 k h h J k 8 u q 5 q q u ",
"9 ;.> : > * 7 * : * P q * 9 & 7 & 9 & S S & a 9 7 r q > P r * > * > : 9 7 S c > > 9 * 9 9 + W a 8 r 7 : q 9 9 M 9 & 7 : & 7 > > ",
"W F.W W R 3.$.W ) W L.d./ 3.) 3.@.0.$.Z.u.U 6.6.d.d.d.3.F.3.@.3.W ;.] u./ Z.d.3.@.0.5.3.5.W L.5.@.;.;.$.;.W ) 5.1.R ] ] 1.5.R ] ",
"a b h a c / P c B L / ) L W $.$.B B L P B c L W $.S L c W b S b ;.! S / L ) ! W S ;.a.U W L W Y L J T ! L c b S b c c c ) W r f ",
"8 6 3 7 - L h @ @ % O @ O 3 b b % % 0 6 - 0 q l v - % $ 9 - 8 @ C q @ 6 O - % $ % v I - 8 - % - 6 3 h l - $ : % 3 6 - : L B O : "
};
