/* XPM */
static char *_72ca2a746d04fa2a41697e15916d5f0Br3AzJOCkMe8jSd0[] = {
/* columns rows colors chars-per-pixel */
"64 64 24 1 ",
"  c black",
". c #00001C",
"X c gray11",
"o c #00002C",
"O c #202020",
"+ c #2C2C2C",
"@ c gray22",
"# c #000040",
"$ c #00004C",
"% c #000058",
"& c #000064",
"* c #000070",
"= c #00007C",
"- c #484848",
"; c gray33",
": c #000088",
"> c #000098",
", c #0000A4",
"< c #0000B0",
"1 c #0000BC",
"2 c #0000D4",
"3 c #0000FC",
"4 c #2024FC",
"5 c #4040FC",
/* pixels */
"@@@@;;;;;;;;;;;@+++++++++++++++++++++++++++++++++++++++++-;;;;;;",
"&&&@@***************************@@*************@@************@**",
"**%oO>>>>>>>>>>>>>>>>>>>>>:::=** O>>>>>>>>:==== O>>>>>>>>==&% ,,",
"$%$ O>>>=>*>>:*::*:::**>=****&%$ O>>::=>>:====$ O><,<,<<<<<:* ,,",
"*%o O>:*=:::**>:>%::%=**::**&%%$ O>:>>=::*=*>&$ O>,<<><1,<>:* >>",
"##o O>=>&:&:***:==*%=&:%*&%%$$$% O>:==::*=*&$%$ O><,>1<,>:==& =&",
"ooo O>=*>>>%***>:::==*&%***&&%$% O>>=>>*&&&=%$$ O><>141><>:&* :=",
"ooo O>::,,>>>:>>>::&=$*%****&$$$ O>>>==*&===&%$ O>,<><<>>,**& :*",
"ooo O>>:>,,>:*%>>:==*&&&%**&%$%% O>>=*===*=*%$$ O>,<,>,,,>*&* :%",
"    O>:*:>>=:*:&&===%%*=$&&&%%$$ O>:==&=>>*&*$% O>,1,,==>>:&%   ",
"**& O>===>***>>&$%$&$=&*&%&&%$$$ O>==&**==&%$%$ O>,<>,===:=%$ :,",
"%*$ O:*=>==&:>>&&$$$&%*&%&**&$%$ O:=*&&==&*%$%$ O>,<<>====*%% >,",
"$%o O:=:**>=%*$*$$$$%%=##$***$$$ O:=*&&&=$&$&$$ O>,<<,>==:*%% :>",
"%oo O:*:*%==*%*%*%$&$&$###$&&$%$ O:*=&&%%&%$%%$ O>,<<>::*=&$$ :>",
"#oo O::***&%$$%*%&%%$$$$##$$$$$$ O==&&%$$$$%$%$ O>,><=:=:**$% ==",
"ooo O:*:%%&%*%&$$%$%%%%$$$$$$$$$ O=%=%%$$$$$$$$ O:<,<<=>=&%$$ *&",
"    O                            O              O:<,>::==%$%$   ",
"::::><,>,>>>>>,>>>>OOOOOOOOOOOOOOOOOOOOOOOOOOOOOO:,<:<*:**%$$ &1",
":,=:<,>:><,>=>>*>:* OO%*:*::>>**$$##OOO$&::>=*&&O:<,<::1:*&%$ =1",
",1,*<,::=>>=*::**:: O%*::::>,>>=%&&%$OO&:>*=*=*% ::>,<::**&$% >1",
":,*:,>:,,::***:**** O:::,>,,*=:%&%$%&OO*>*&%*%$* =,,<,:=*%$%% >1",
":*&*>=:,<,**::*:$** #,:,=,>*$&*&$$%&* O==>*&&$&% =<,,&&=*&%%$ ,1",
":*:&>>=:,,*:**%%&** #>>,,>,:&*&$%%%$& O&>==%$*$$ *>>>&&&*&$$$ <1",
"*=*&,=*=:>:**:%&*$$ $>,,>1:=*&%%%$&&$ O&&%$$%$%% *:>>=&&&%$$$ ,1",
"*&%=,>=:*:*::*&*%*$ &:>>=*==&&*&%&$$& OO         *::<**&&&$%$ ,1",
":*::,,:=,::::**&$$$ &:>=*:=&$&&:&*&*& >><<>>::= O::>::*&&$%$$ >1",
"*:=*,>=*=,,%*:==&$% &:=*,>:*&*=1,=&%& ><<>:=&=* O:<,>:**&%%%$ >1",
"::*&>:*=>,,>:*==&$% $==*:,::==:,=**&* >:>>=&>&% O><,<>:=&%$%% >1",
"::**,:,::>,>%*&&&$$ #**=,5,=>:*:=&=%* >>:*=>=&& O>,><>:*&%%&$ =1",
"*::&>==>>:>>%&$%$$$ #**=:,>>:>>=:*$*$ >>>:>&&=& O>>:>=:=*$$$% =1",
":=**>:=>>>:*&%$%##$  *=:>=>=>,&,&$%&$ >1,>=&%%% O>:>=****$$$$ =1",
":*%&:=:=>>*%%$$$##%  %**:*:>:>,&$%*$$ >:,>=&&&% O>:<>:=&&$&$$ =1",
"*:*%:==*==*%%&**%$% O$%****:>&*:&*$$$ >::>*%%&$ O>>,<>=&%**$$ =1",
"*:$$:=>:&**&%&**%$$ OO#$$$$$$$$$$$$$# >:>%&*&%$ O>>,,>>:*%*%$ =1",
":$%$:>:==*%%$%&&%$$ OOO               >>=*%%%$$ O><<>::::=%$$ =1",
"*:%%*::=****$%#$$%$ OO%%%%%%&&&%%%%$OO>==&$$%$$ O><<>:*::=*&$ &1",
"*%%$*==*&***$###$$$ OO%&*::*:==**%%$ O>>=*%$%$$ O>:<:<*&=*&%$ &1",
"*%$$*=%&*%**$####%$ OO%*::=:*&=&&=&$ O>>*:&%$$$ O>>>,::&&%%%$ &,",
"%$%$*:*%*%&$%#$##$$ OO%:=&::&=&$&:&& O>>:>*&%$$ O><>::&$$&$$$ &,",
"%%%$*=:=&*&$$$###$$ OO%:*:**:&=%$&&$ O>:>:=*&%% O><:>:&%$$&$$ &,",
"%%#%*:=*%&*&$$%$$%% OO%=::*&%$%$$%$$ O>>=**&%%$ O:,::**&%%$$$ &:",
"                    OO%:=*%$$%$$&&&$ O::**%&$%$ O:>:*$*$$%$$$ O ",
"oo. OOOOOO$$&&===*&%$$O              O:>*%&&$$% O=*$%$&&%$$$$ O&",
"o#o OO:>,<<<<<<<<<<<<,,,>>::*OOOOOOOOO::*&%$$$$ O=*%%$$$$%$&$ O&",
"... OO><<<<<,>,<>>><>>,,*===% O$$%%&OO:*=&$$$$$ OO            O$",
"    OO><,,>,,<<<:><<<,>=,%*$% O$:=,* O=*=%&%$%% OOOOOOOOOOOOOOOO",
"**& OO<<<,,<<::><<:,=>::*=%$% O$>,:$ O**%&%$$$$ OO<<<<<<<<<<<<<,",
"=&$ OO<>,>,,,:::<>==>*:::*&$$ O%,,>= OO         OO<<<<,,>>,,,>>,",
"%%$ OO<<,:=,,>::><<>>>*::*$$% O%>=&$ O=:>,>>>:==OO<,,<,>11>,>:<<",
"o$# OO<<:><,=>,,,*>>3>:%&%$%$ O&:&$$ O:>,>:,:,&& O<<,,><<1**:=*:",
"##o OO<<<<>=<=,**>=>>:*::*%%% O&=%$% O>,,>=*=&$% O<,<,>,,>***:>*",
"%.. OO<><:>><,:***>>&*:**%$*$ OO     O:>==*&$%$$ O<<,22>:>:**>==",
"%o. OO<,::<2<>=>**>>==*:&&%$$ OOOOOOOO           O<,>221<,>:,*&:",
"#o# OO<><>252::>:=*====*##$%$ O:::>>>>>>>:::==&&OO<,>:11>:*:*=::",
"o#o OO<,<,<2<>*>>%%%*==&###$$ O:>:=>=:>>=:>**&&$ O<>>,:=:=>=*=>=",
"##o OO<><,,,===*&%%%%&&&$##$$ O::===>>>,:===%&$$ O<<>::==*=:::=&",
"oo# OO><,,>**:>::*%%%%&%$*$$$ O>=>>,:>:>>>:=*&$% O<,>:***&*=:*%$",
"o.. OO<><,==,*>>:&*$&**$%$$$% O>>=>:=*=:>>:=*$%% O<,<,>=&$$*&$$#",
"o.. OO<><>:=*%=>>:&%$***$%$%$ O:=>:=>*=:::=*&%$$ O<<>>**:$$%&$$#",
"oo. OO,>===>%=%=::&&%***$$&$$ O:>=***=&**=*&%$$$ O,:>:<:**%&$&$$",
"#oo OO,>&%=%>**:$%$$%$**$$%%$ O=:>*&*%*&*&&&$%%$ O,<>*:&&*$%$$$%",
"ooo OO>>==%=$%$%&%&%&$$$$$$$$ O=:=*&%&&%$&$$%%$$ O>*:*=:*&%$%$%$",
"oooOOO>:*=:&&&&&&%%%%%%%%%%%% O=*&&&&&&%%%%%%&%&OO>:*=*&&%%%%%%%",
"X+++@@***********************@@*****************@@**************"
};
