/* XPM */
static char *_31f6d77c41e4cfaebf75360acecc7d6KgN2pq9eRO8strxu[] = {
/* columns rows colors chars-per-pixel */
"64 64 256 2 ",
"   c black",
".  c #040404",
"X  c #0C0C0C",
"o  c gray8",
"O  c gray11",
"+  c gray14",
"@  c #2C2C2C",
"#  c #343434",
"$  c #3C3C3C",
"%  c #444444",
"&  c #4C4C4C",
"*  c gray33",
"=  c #606060",
"-  c #686868",
";  c gray44",
":  c gray47",
">  c #808080",
",  c #888888",
"<  c #909090",
"1  c #989898",
"2  c #A0A0A0",
"3  c gray66",
"4  c gray69",
"5  c gray72",
"6  c #C0C0C0",
"7  c #C8C8C8",
"8  c #D0D0D0",
"9  c #D8D8D8",
"0  c gray88",
"q  c #ECECEC",
"w  c #F4F4F4",
"e  c gray99",
"r  c #240800",
"t  c #300C00",
"y  c #401400",
"u  c #4C2000",
"i  c #5C2C04",
"p  c #6C3804",
"a  c #784408",
"s  c #88500C",
"d  c #945C14",
"f  c #A4681C",
"g  c #B47C24",
"h  c #C49030",
"j  c #D0A444",
"k  c #E0BC60",
"l  c #ECD07C",
"z  c #FCE89C",
"x  c #100808",
"c  c #1C1010",
"v  c #2C1814",
"b  c #38201C",
"n  c #482820",
"m  c #542C24",
"M  c #643428",
"N  c #70402C",
"B  c #804830",
"V  c #905438",
"C  c #A05C40",
"Z  c #B46C48",
"A  c #C47854",
"S  c #D8845C",
"D  c #E89068",
"F  c #FCA074",
"G  c #100000",
"H  c #140000",
"J  c #1C0000",
"K  c #240000",
"L  c #2C0000",
"P  c #340000",
"I  c #3C0400",
"U  c #400400",
"Y  c #480400",
"T  c #500804",
"R  c #580C04",
"E  c #600C04",
"W  c #641004",
"Q  c #6C1404",
"!  c #741808",
"~  c #7C1C08",
"^  c #84200C",
"/  c #8C2410",
"(  c #942810",
")  c #9C2C14",
"_  c #A4341C",
"`  c #AC4024",
"'  c #B44C30",
"]  c #BC5838",
"[  c #C46444",
"{  c #CC7050",
"}  c #D47C5C",
"|  c #DC8C6C",
" . c #E49878",
".. c #ECA488",
"X. c #F4B498",
"o. c #FCC4A8",
"O. c #100400",
"+. c #280C00",
"@. c #441808",
"#. c #602814",
"$. c #783418",
"%. c #8C4420",
"&. c #A45428",
"*. c #B86030",
"=. c #CC7038",
"-. c #D07844",
";. c #D88450",
":. c #E08C5C",
">. c #E49868",
",. c #ECA478",
"<. c #F4B088",
"1. c #FCBC98",
"2. c #FC8074",
"3. c #F4685C",
"4. c #EC5048",
"5. c #E43C34",
"6. c #DC2820",
"7. c #D41410",
"8. c #C0100C",
"9. c #AC0C08",
"0. c #980808",
"q. c #840404",
"w. c #700404",
"e. c #5C0000",
"r. c #480000",
"t. c #340000",
"y. c #240000",
"u. c #100000",
"i. c #000800",
"p. c #001000",
"a. c #041C00",
"s. c #082800",
"d. c #143400",
"f. c #1C3C00",
"g. c #204400",
"h. c #284C04",
"j. c #305804",
"k. c #406C08",
"l. c #508014",
"z. c #609420",
"x. c #74A82C",
"c. c #88C03C",
"v. c #98D84C",
"b. c #B4F068",
"n. c #101400",
"m. c #1C2000",
"M. c #282C00",
"N. c #383C00",
"B. c #484800",
"V. c #585400",
"C. c #645C04",
"Z. c #746804",
"A. c #807008",
"S. c #907C10",
"D. c #A08418",
"F. c #B09020",
"G. c #C09C30",
"H. c #D4AC44",
"J. c #E8C058",
"K. c #FCD474",
"L. c #1C0000",
"P. c #2C0000",
"I. c #3C0000",
"U. c #500404",
"Y. c #600404",
"T. c #700C0C",
"R. c #841010",
"E. c #941818",
"W. c #A82020",
"Q. c #B02828",
"!. c #BC3434",
"~. c #C84444",
"^. c #D45454",
"/. c #E06868",
"(. c #EC7878",
"). c #FC9090",
"_. c #180808",
"`. c #240C0C",
"'. c #301414",
"]. c #401C1C",
"[. c #4C2424",
"{. c #582C2C",
"}. c #643434",
"|. c #744040",
" X c #804848",
".X c #8C5454",
"XX c #9C6060",
"oX c #AC7070",
"OX c #C08080",
"+X c #D49494",
"@X c #E8A8A8",
"#X c #FCC0C0",
"$X c #1C140C",
"%X c #281C10",
"&X c #342818",
"*X c #403020",
"=X c #4C3C28",
"-X c #584830",
";X c #685438",
":X c #745C40",
">X c #806848",
",X c #88704C",
"<X c #947854",
"1X c #A48460",
"2X c #B89870",
"3X c #D0AC84",
"4X c #E4C49C",
"5X c #FCDCB4",
"6X c #080410",
"7X c #0C0818",
"8X c #180C24",
"9X c #20102C",
"0X c #281838",
"qX c #341C40",
"wX c #40244C",
"eX c #4C2C58",
"rX c #583464",
"tX c #684070",
"yX c #744880",
"uX c #84548C",
"iX c #94609C",
"pX c #A06CA8",
"aX c #B078B4",
"sX c #C088C4",
"dX c #080410",
"fX c #140C28",
"gX c #18103C",
"hX c #1C1454",
"jX c #1C186C",
"kX c #181884",
"lX c #18209C",
"zX c #2034A8",
"xX c #2C4CB8",
"cX c #3468C4",
"vX c #4484D4",
"bX c #50A0E0",
"nX c #60BCF0",
"mX c #7CD4F4",
"MX c #9CECF8",
"NX c #BCFCFC",
"BX c #FCFC54",
"VX c #F4E044",
"CX c #F0C434",
"ZX c #ECA424",
"AX c #EC9020",
"SX c #E47818",
"DX c #DC6014",
"FX c cyan",
"GX c #C02C0C",
"HX c #AC1808",
"JX c #940408",
"KX c #78000C",
"LX c #5C0010",
"PX c #400014",
"IX c #280018",
"UX c #D84810",
/* pixels */
"}.}.}.M }.}.}.}.M {.{.{.}.M M }.}.}.}.}.M n m }.}.}.}.}.M }.m m b b M . c ].}.}.N }.}.N [.n }.}.{.N {.}.}.}.}.M {.{.b b M }.m M ",
"m . m m m m n . }.x n v v _.m m m }.{.M {.n _.{.{.{.. n M {.. }.c b b . c b {.b b n m M {.. [.b m ].M n v n m M m b '.].b m . {.",
". }.M . }.. x N x }.M {.{.{.. M {.m n M M _.v . b v [.[.v {.b . c c $Xb . n . [.$X{.M M . }.{.. . . {.. }.].[.. m . [.b n [.[.n ",
"N `.m m . }.v v c c m n N {.}.. n n n . n }.n v . n N {.m n }.m ].[.m . . b N M N M . . {.. . N M v . n . . {.[.. b }.}.{.[.{.. ",
". m . {.n v . . m {.b {.n . {.[.M {.}.N N }.N b n . ].M [.m . . ].}.b . . b b M {.v c {.N [.}.n _.].].n v v c %X_.v v b {.M N }.",
"c . N . b . ].c . . m n n }.M }.b m {.M M . [.}._.. m b x [.}.{.b . x . b v [.n . N b N . v b . v M . c b '.. . [.[.M {.v n {.].",
"{.n . . %X'.].n M [.. . [.n b x _.M v M m M }.{.n [.. N }.c . _.v v [.. v v . {.b n [.b [.. . n `.. b N m n n ].c v b {.M {.n . ",
". b b ].. {.}.. b {.. x . M {.{.}.m ].m b m ].b n n . n b v [.b {.}.v . v n b m c . {.b v v b . n c b b `.}.N b c n . . . . b }.",
"'.. '.'.}.c _.{.%X}.N ].b . ].b v . c m n . M . {.[.].b [.. . v M M n . . n . . n . v . v n b n b b . n c n {.{.{.v ].n %XN . [.",
"b m . n [.$XN {.M {.. . . b . . n N b b . b n ].. {.v . . m m v . b }.c c n ].n v ].. [.. . . ].. n c . b x n [.. v m N b . v . ",
"_.m [.{.M {.m b M n b [.v v M {.v . . . . x . b [.. b '.. . . n {.x x n . n M m }.v b n b n v . c . v {.].M c m N }.. v {.}.|.n ",
"{.{.m . b m ].M . . `.. b ].. . _.N }.v n b [.v . N }.v m m N b b {.x `.. M %X. b m v {.}.].b v n m b . v . . . n {.|.}.. b b b ",
"{.. ].}.n }.c . m N v b n [.m ].v v b ].N c b m b . v _.v . b m n [.m `.. n |.N . . m . . . m ].v . n [.b v m $Xc ].{.{.m {.{.. ",
"m }.v n v b {.}.N . b m n m n N n _.b m n n ].n $X].. N }.n . N n [.n v `.[.c [.n b n N }.b . x . n n m . . %XM b n . `.n b m }.",
". . n . . ].. n b m . }.n _.m b . x n m . n v }.n b v b {.. b . M c {.. . ].. ].m {.. . n N n N n x b }.N b v v v b n . }.b b n ",
"b m v m ].. N m . . b n . . . . v n . b ].n . . . v b . b {.{.m m N m . . m b . b . N n . . . v }.n $Xn m b ].M . . N N m n {.m ",
"v ].b {.[.. b v c . n . x . `.m ].m . }.m n '.. . v . . ].c }.{.. [.n . c b v n `.].b n m v b n m . . }.N }.{.v v m . v v }.n v ",
". . . . . c . . . c . . . v `.. . x . . . . x v . x . n . . . . . . . . x v . v x . . . . . . . . . %X. . . v . x . [.. . . . b ",
". . . c _.c . v v c . . . ].v . x . c . . . . . b . . . . c . . .   . . x n . . . . c v . . . b . c . . . . . . . . . . . . . . ",
"_.c v x v b b n b b _.c n %Xb c v '.'._.v '.].c c v v _.b v c c c c b c b b c c . . v c _.c n M _.n b v v %Xb c v v ].m v c b _.",
"{.}.[.n n . '.. %X. N [.m |.m v b b `.[.m b x {.N N N [.N {.N M |.|.N M N [.}.n . v n }.{.M x }.m n M N {.N C C C V }.N }.{.}.}.",
"N [.n c {.m {.m v N m N m b n n ].n [.].].m n b n x [.}.m n }.n M m . b . }.v ].. . '.. b [.M . m x n [.v N n x . . m x M m M m ",
"c . . n b . v ].n b c %X. . M n N {.m v c b N M n ].b m n b m . b . m v n n b {.. c v n . . [.m . m }.v N V . . M M m N b m n {.",
"N {.n {.m {.b _.M [.v . [.b m M . b n M {.n n . {.}.{.b x M %X{.c {.. {.N . n v . . c b }.n {.[.M . {.{.].x . _.n . m m ].n {.n ",
". {.. n [.m {.{.n n M {.m n n m {.c . . . n c v %X. n m m x [.b b b }.. . n . . . . v [.m }.. {.$X{.n n M v }.M }.N M v n n . m ",
"{.. [.x . m {.{.c b n n c {.v m M n m ].. . . $X. m c n m [.m v n %Xn {.[.c . ].. . b b . n M b m _._.].N x . _.. . . c c . m . ",
"n }.{.{.{.x `.M N _.b m M ].N n . n . v b m b . v b m . v n b n }.}.m . x b m }.. . c . . . . . . . b . . n [.n v m . `.m m M m ",
"M b _.. M N {.].n M {.m n M b b N }.M b n v b n m . . v . . v n x c v M {.n ].. . . c x x . `.x `.b b {.{.M n {.M b m M b m ].[.",
"].. v {.x . b . . b n `.m m m ].].v b }.m N v c . b b b n ].M M b n m m . n ].{.. . b %Xc v n c n m N v ].c v [.{.[.].].}.b ].{.",
"{.M {.. }.].n N [.b m v . c b . x n M b M `.m {.m v v . v M c . v c n . M n M b . . c v {.c v {.}.m n m {.m b m ].}.n m b m {._.",
"[.n n {.{.}.n n b m x v %Xc [.m x . . . . . $X].. b m ].c . . b b v n b m m n b . . c {.v v {.. M . m m [.{.x m {.m M m {.m M M ",
"c n m n c . . b [.n . n '.. . . . . . . . '.v . `.x . . . n n }.}.{.b v . }.].b . . c [.. v v [.. N ].n {.{.}.. v n m $Xn . v n ",
"b m _.b }.{.. . . v v . ].b _.].v c {.n b b b n M v [.[.n N . . _.c v `.n m M b . . v m v {.. . . . . . . . . {.m {.n m n M [.m ",
"}.. }.{.. . m ].v . v b . x n n M n . . . . n [.. [.v m N . M x . . `.M b m b N . . v v v c _.v v b _.b [.b n b . n m m M c n [.",
"m n m . c v {.c b . c v n v {.N b `.n {.}.b c . ].m }.m . }.v b m ].n c }.. m x . x v . ].v n n {.n [.x x v v n v . . c c . n . ",
"m }.m c }.n . ].v b c }.b }.c [.. _.%X. . [.N n `.. . m N . m m _.`.. ].. m x . . . v . . N M }.b M v m m N }.}.}.{.{.[.c v n c ",
"v . n n . N [.[.v b }._.n n M . ].m }.m m n . . m b v . . . . . c %Xn . . . x n . . v {.N v %Xm . b N {.}.v m n {.. {.. n }.c b ",
". }.. {.. . b . c {.. ].n m b }.n {.. b M . N N n {.m `.n v . `.].b c v v m %X. c . c . b [.. v {.{.v {.{.[.. . b b x N v v {.n ",
"n . b . b }.. [.[.v N b c . c n {.N M v . {.n M `.].}.n c v n c v ].. `.].. _.n . . v ].. . %X. . n m v n . {.n . {.v v }.}.. n ",
"c }.{.{.[.c }.}.. b v n n n }.c . n n . M M v m {.c . M n b [.n n n N m %Xn n m . c c v M n c b b . . . c [.}.}.N n v . . n N v ",
"}.[.v b n . b v N b n {.v {.m m N b M }.m . M m m b }._.n {.n c M c n ].{.%Xv . . . c . . . m . {.].b [.m m . n n {.n n b v {.v ",
". . . . . . . . . . . . . . . . . . . . . . . . . . . . . . . . . . . . . . . . . . b . v v . . . . . . . . . . . . . . . . . . ",
". .       .     . x x           . . .   . _.  . . x b . `.  .   . . . . x .     _.. . . . . . x . . c     . . . _.  . .   m m c ",
"v b b v b b b m b b b b b b . . b b ].b b b m v b m v b b m b n n b n b n b m m m b b b v b m m m ].v n b n b v n v n m ].].b b ",
"[.. [.{.M b . . }.n m N N }.. . ].b b . . . . B n b v n . M }.`.].b . }.m n }.. N v b }.n }.M M m b b . . N . b }.M . . . }.v n ",
". [.. b . [.b }.n . . . . . . c M b b }.N b {.. ].. m b n . v M . . . m . x n M m M . . m {.[.m . . v m }.b . . ].n }.}.M . {.b ",
"[.n }.c M . [.b c }.{.. }.}.. ].M m . . b }.. N {.}.. b n n b n {.n m b M _.. . b c M {.. ].m v N }.. . n b M ].. . n b [.v n b ",
"N v {.].. [.[.}.b . v }.n . . . b b {.N M v v c n . }.. . n b . N N M . n . b ].b . . ].{.].n c . . M b n n n n b }.. v b M . m ",
"].. n b n . b b N b b c . . . v m n M v . b v b . . . c v . M . . n M . . v . n . n b N b . . b . [.{.{.. N N }.b n b n {.v b [.",
"n N b . ].v . . _.. . . {.m . c n v ].n m m ].].M }.n {.v n . b m b . M N . n . N m v . . c n . n b . c n m [.. n b [.m v b . . ",
"n . v n . ].. . . c v v b n c . m {.. [.b ].c }.v n ].. b %Xv `.. . v . . n . n b . . ].[.N M n b m m }.m . . }.].b b v . b N }.",
"c v v b N . v v v v v c b {.x x m v m v b c . . . . . . b M n _.c b . v m %X].. . c n b . c n }.n n [.c b n [.M n n {.. }.b v . ",
". . . [.b [.x ].].n . . . c . . M . b b . . n c n n [.[.v . . v _.. . x . . ].{.M ].. n ].n n . $Xn n M n }.n . n ].m }.m v n n ",
"M }.N N b . b ].. c v {.m [.. c M n . b }.n ].m b . m . . {.n b v _.].c v . . . . v {.b }.b . N v n v . . b x {.. n . . b . n b ",
". . b n b b b . ].n [.M x . . . M {.N v v v b . . c b ].|.n `.}.m n M m b n n ].n n . `.v m v . m b M n M b m m b . . m . . v ].",
"[.m m x m v M m M M c b N M `.. M n c n n c . {.N N n {.. . n . v M . . n _.n ].. . n . b b N {.m . n v c ].v . . . x . {.b . [.",
". b %X[.. n n v . {.c x . x . . M c n . . [.N . . . . c . . v N {.c M N . b . b {.].. . x . . v n M c M m [.. . b m c c b {.m n ",
"N %Xb n x }.b c . x %Xv v . . c m m . }.m v v b . . . . x m }.. M n b _.{.b m . `.b c c _.. . . . M n %XM b c {.}.{.c b {.b v . ",
"b n b n }.. m M }.. b m ].].. v m c n . . . m . M [.v m ].. . {.n }.M M . ].. M m n b b M m ].. _.. . n . . m v c m N }.n {.b {.",
"x m n . . n . {.v {.[.n [.. . . M . n ].n N . v [.. [.c M M {.c . . . `.{.v m m n b [.v . . N m n ].M m c _.%Xb v n c c m . n x ",
". b . c . }.n . b b {.c v [.v . n {.{.{.c n m b b n . b . x c b b b [.c M m . . `.v {.b {.. . n N {.. . . c n m b . . . ].{.[.[.",
"m . v . n m . n . n n b b }.. x n {.n m M . . . . n M . m m c b n n c v _.b b {.M v . v m [.c n . . m }.{.n x n b _.n {.. . b . ",
". ].n c . . . . . . . . c . m . n . . . . v m n {.. . n . . x x _.. b b . n c `.. c . m . x v x [.. . . . n . . b %X. . . c . v ",
". . . . . b . c . . . . . . . . . . . . b . . x . . . . . . . . . . . . x . . . v . . . _.. b . . v . x . . . v . . . . n . . . "
};
